<svg xmlns="http://www.w3.org/2000/svg" viewBox="0 0 520 494"><defs><style>.cls-1{font-size:4px;font-family:NanumGothic;}.cls-2{fill:#b3b3b3;}.cls-3{fill:#fff;}.cls-4,.cls-8{fill:#706db2;}.cls-5{fill:#e6e6e6;}.cls-6{fill:#ccc;}.cls-7{fill:none;}.cls-8{opacity:0.6;}.cls-9{fill:#ffbc00;}.cls-10{fill:#60584c;}.cls-11{fill:red;}.cls-12{fill:#eeeeef;}</style></defs><title>ico-comm</title><g id="text"><text class="cls-1" transform="translate(6.11 105.58) scale(0.98 1)">인사정보</text><text class="cls-1" transform="translate(27 105.58) scale(0.98 1)">협력업체평가</text><text class="cls-1" transform="translate(54.2 105.58) scale(0.98 1)">고객업무관리</text><text class="cls-1" transform="translate(84.56 105.58) scale(0.98 1)">운영관리</text><text class="cls-1" transform="translate(110.1 105.58) scale(0.98 1)">성과관리</text><text class="cls-1" transform="translate(135.66 105.58) scale(0.98 1)">모니터링</text><text class="cls-1" transform="translate(161.86 105.58) scale(0.98 1)">정보관리</text><text class="cls-1" transform="translate(185.83 105.58) scale(0.98 1)">마이페이지</text><text class="cls-1" transform="translate(216.01 105.58) scale(0.98 1)">디자인</text><text class="cls-1" transform="translate(243.7 105.58) scale(0.98 1)">샘플</text><text class="cls-1" transform="translate(270.17 105.58) scale(0.98 1)">교육</text><text class="cls-1" transform="translate(291.66 105.58) scale(0.98 1)">커뮤니티</text><text class="cls-1" transform="translate(320.59 105.58) scale(0.98 1)">우편함</text></g><g id="uicons"><path class="cls-2" d="M3,46a1,1,0,0,0,1,1H22a1,1,0,0,0,1-1V34.68a1,1,0,0,0-1-1H11.8L11,32A1.3,1.3,0,0,0,9.8,31H4a1,1,0,0,0-1,1Z"/><path class="cls-3" d="M13.32,40.63l1.19.85-.45,1.37A1,1,0,0,0,14.45,44a1.08,1.08,0,0,0,1.27,0l1.16-.84L18,44a1.1,1.1,0,0,0,1.51-.22,1,1,0,0,0,.15-.95l-.45-1.37,1.19-.85a1,1,0,0,0,.23-1.48,1.07,1.07,0,0,0-.86-.43H18.35l-.44-1.36a1.09,1.09,0,0,0-1.36-.68,1.06,1.06,0,0,0-.69.68l-.45,1.36H14a1.06,1.06,0,0,0-1.08,1.05,1.08,1.08,0,0,0,.44.86Z"/><rect class="cls-3" x="367.48" y="341.48" width="19.05" height="19.05" rx="3"/><path class="cls-4" d="M383.67,361H370.33a3.34,3.34,0,0,1-3.33-3.33V344.33a3.34,3.34,0,0,1,3.33-3.33h13.34a3.34,3.34,0,0,1,3.33,3.33v13.34A3.34,3.34,0,0,1,383.67,361ZM370.33,342a2.39,2.39,0,0,0-2.38,2.38v13.34a2.39,2.39,0,0,0,2.38,2.38h13.34a2.39,2.39,0,0,0,2.38-2.38V344.33a2.39,2.39,0,0,0-2.38-2.38Z"/><rect class="cls-3" x="367.48" y="367.48" width="19.05" height="19.05" rx="3"/><path class="cls-4" d="M383.67,387H370.33a3.34,3.34,0,0,1-3.33-3.33V370.33a3.34,3.34,0,0,1,3.33-3.33h13.34a3.34,3.34,0,0,1,3.33,3.33v13.34A3.34,3.34,0,0,1,383.67,387ZM370.33,368a2.39,2.39,0,0,0-2.38,2.38v13.34a2.39,2.39,0,0,0,2.38,2.38h13.34a2.39,2.39,0,0,0,2.38-2.38V370.33a2.39,2.39,0,0,0-2.38-2.38Z"/><path class="cls-4" d="M387.82,367.61,376.31,379.4a.82.82,0,0,1-1.18,0h0l-4.46-4.56a.81.81,0,0,0-1.17,0h0a.87.87,0,0,0,0,1.2h0l4.46,4.57a2.46,2.46,0,0,0,3.54,0L389,368.82a.87.87,0,0,0,0-1.21h0a.8.8,0,0,0-1.17,0Z"/><rect class="cls-4" x="393.48" y="341.48" width="19.05" height="19.05" rx="3"/><path class="cls-4" d="M409.67,361H396.33a3.34,3.34,0,0,1-3.33-3.33V344.33a3.34,3.34,0,0,1,3.33-3.33h13.34a3.34,3.34,0,0,1,3.33,3.33v13.34A3.34,3.34,0,0,1,409.67,361ZM396.33,342a2.39,2.39,0,0,0-2.38,2.38v13.34a2.39,2.39,0,0,0,2.38,2.38h13.34a2.39,2.39,0,0,0,2.38-2.38V344.33a2.39,2.39,0,0,0-2.38-2.38Z"/><rect class="cls-4" x="393.48" y="367.48" width="19.05" height="19.05" rx="3"/><path class="cls-4" d="M409.67,387H396.33a3.34,3.34,0,0,1-3.33-3.33V370.33a3.34,3.34,0,0,1,3.33-3.33h13.34a3.34,3.34,0,0,1,3.33,3.33v13.34A3.34,3.34,0,0,1,409.67,387ZM396.33,368a2.39,2.39,0,0,0-2.38,2.38v13.34a2.39,2.39,0,0,0,2.38,2.38h13.34a2.39,2.39,0,0,0,2.38-2.38V370.33a2.39,2.39,0,0,0-2.38-2.38Z"/><path class="cls-3" d="M413.82,367.61,402.31,379.4a.82.82,0,0,1-1.18,0h0l-4.46-4.56a.81.81,0,0,0-1.17,0h0a.87.87,0,0,0,0,1.2h0l4.46,4.57a2.46,2.46,0,0,0,3.54,0L415,368.82a.87.87,0,0,0,0-1.21h0a.8.8,0,0,0-1.17,0Z"/><rect class="cls-5" x="419.48" y="341.48" width="19.05" height="19.05" rx="3"/><path class="cls-6" d="M435.67,361H422.33a3.34,3.34,0,0,1-3.33-3.33V344.33a3.34,3.34,0,0,1,3.33-3.33h13.34a3.34,3.34,0,0,1,3.33,3.33v13.34A3.34,3.34,0,0,1,435.67,361ZM422.33,342a2.39,2.39,0,0,0-2.38,2.38v13.34a2.39,2.39,0,0,0,2.38,2.38h13.34a2.39,2.39,0,0,0,2.38-2.38V344.33a2.39,2.39,0,0,0-2.38-2.38Z"/><rect class="cls-5" x="419.48" y="367.48" width="19.05" height="19.05" rx="3"/><path class="cls-6" d="M435.67,387H422.33a3.34,3.34,0,0,1-3.33-3.33V370.33a3.34,3.34,0,0,1,3.33-3.33h13.34a3.34,3.34,0,0,1,3.33,3.33v13.34A3.34,3.34,0,0,1,435.67,387ZM422.33,368a2.39,2.39,0,0,0-2.38,2.38v13.34a2.39,2.39,0,0,0,2.38,2.38h13.34a2.39,2.39,0,0,0,2.38-2.38V370.33a2.39,2.39,0,0,0-2.38-2.38Z"/><path class="cls-6" d="M439.82,367.61,428.31,379.4a.82.82,0,0,1-1.18,0h0l-4.46-4.56a.81.81,0,0,0-1.17,0h0a.87.87,0,0,0,0,1.2h0l4.46,4.57a2.46,2.46,0,0,0,3.54,0L441,368.82a.87.87,0,0,0,0-1.21h0a.8.8,0,0,0-1.17,0Z"/><circle class="cls-3" cx="455" cy="351" r="9.52"/><path class="cls-4" d="M455,361a10,10,0,1,1,10-10A10,10,0,0,1,455,361ZM455,342a9.05,9.05,0,1,0,9.05,9.05A9.06,9.06,0,0,0,455,342Z"/><circle class="cls-3" cx="455" cy="377" r="9.52"/><path class="cls-4" d="M455,387a10,10,0,1,1,10-10A10,10,0,0,1,455,387ZM455,368a9.05,9.05,0,1,0,9.05,9.05A9.06,9.06,0,0,0,455,368Z"/><circle class="cls-4" cx="455" cy="377" r="4"/><circle class="cls-4" cx="481" cy="351" r="9.52"/><path class="cls-4" d="M481,361a10,10,0,1,1,10-10A10,10,0,0,1,481,361ZM481,342a9.05,9.05,0,1,0,9.05,9.05A9.06,9.06,0,0,0,481,342Z"/><circle class="cls-4" cx="481" cy="377" r="9.52"/><path class="cls-4" d="M481,387a10,10,0,1,1,10-10A10,10,0,0,1,481,387ZM481,368a9.05,9.05,0,1,0,9.05,9.05A9.06,9.06,0,0,0,481,368Z"/><circle class="cls-3" cx="481" cy="377" r="4"/><circle class="cls-5" cx="507" cy="351" r="9.52"/><path class="cls-6" d="M507,361a10,10,0,1,1,10-10A10,10,0,0,1,507,361ZM507,342a9.05,9.05,0,1,0,9,9.05A9.06,9.06,0,0,0,507,342Z"/><circle class="cls-5" cx="507" cy="377" r="9.52"/><path class="cls-6" d="M507,387a10,10,0,1,1,10-10A10,10,0,0,1,507,387ZM507,368a9.05,9.05,0,1,0,9,9.05A9.06,9.06,0,0,0,507,368Z"/><circle class="cls-6" cx="507" cy="377" r="4"/><g id="Pulse"><path class="cls-3" d="M148.83,4H137.17A4.13,4.13,0,0,0,133,8.09v6.55a4.14,4.14,0,0,0,4.17,4.09h5v1.63h-3.34a.82.82,0,1,0,0,1.64h8.34a.82.82,0,1,0,0-1.64h-3.34V18.73h5A4.14,4.14,0,0,0,153,14.64V8.09A4.13,4.13,0,0,0,148.83,4Zm2.5,10.83a2.5,2.5,0,0,1-2.5,2.5H137.17a2.5,2.5,0,0,1-2.5-2.5V8.17a2.5,2.5,0,0,1,2.5-2.5h11.66a2.5,2.5,0,0,1,2.5,2.5Zm-1.66-3.33a.84.84,0,0,1-.84.83h-2.47L145,14.46a.85.85,0,0,1-.7.37h-.05a.82.82,0,0,1-.7-.46l-1.85-3.71-.87,1.3a.85.85,0,0,1-.7.37h-2.91a.83.83,0,1,1,0-1.66h2.47l1.41-2.13a.83.83,0,0,1,.75-.37.82.82,0,0,1,.7.46l1.85,3.71.87-1.3a.83.83,0,0,1,.7-.37h2.91A.84.84,0,0,1,149.67,11.5Z"/></g><circle class="cls-3" cx="194.5" cy="8" r="5"/><path class="cls-3" d="M194.5,14.67a7.5,7.5,0,0,0-7.5,7.5.83.83,0,0,0,.83.83h13.34a.83.83,0,0,0,.83-.83A7.5,7.5,0,0,0,194.5,14.67Z"/><path class="cls-7" d="M170.13,20.52a2,2,0,0,1-2.66-.77h0a2,2,0,0,1-.25-.92H164.1a.83.83,0,1,1,0-1.66H168a.69.69,0,0,1,.13-.11,5.24,5.24,0,0,1,0-1.12,1.8,1.8,0,0,1-.47-.44H164.1a.84.84,0,1,1,0-1.67h3.16a1.76,1.76,0,0,1,.21-.58,2,2,0,0,1,2.66-.78,5.2,5.2,0,0,1,1-.56,2,2,0,0,1,.13-.58h-1.18a2.52,2.52,0,0,1-2.55-2.5V4.71a2.85,2.85,0,0,0-.41,0h-3.84a2.52,2.52,0,0,0-2.55,2.5V18.83a2.52,2.52,0,0,0,2.55,2.5h7.89c0-.08,0-.16,0-.25A5.2,5.2,0,0,1,170.13,20.52Z"/><path class="cls-7" d="M170.05,9.67h3.67a4.1,4.1,0,0,0-.67-.88l-3-2.9a3.57,3.57,0,0,0-.89-.65V8.83A.85.85,0,0,0,170.05,9.67Z"/><path class="cls-3" d="M167.26,13.83H164.1a.84.84,0,1,0,0,1.67h3.56A2,2,0,0,1,167.26,13.83Z"/><path class="cls-3" d="M168,17.17h-3.9a.83.83,0,1,0,0,1.66h3.12A2,2,0,0,1,168,17.17Z"/><path class="cls-3" d="M175.05,21.42a3.77,3.77,0,0,0,.37-.52c-.11.05-.21.13-.32.18A1.27,1.27,0,0,1,175.05,21.42Z"/><path class="cls-3" d="M171.14,21.33h-7.89a2.52,2.52,0,0,1-2.55-2.5V7.17a2.52,2.52,0,0,1,2.55-2.5h3.84a2.85,2.85,0,0,1,.41,0V8.83a2.52,2.52,0,0,0,2.55,2.5h1.18a2,2,0,0,1,3.87.58,5,5,0,0,1,.9.51v-.68a5.76,5.76,0,0,0-1.74-4.13l-3-2.9A6,6,0,0,0,167.09,3h-3.84A4.21,4.21,0,0,0,159,7.17V18.83A4.21,4.21,0,0,0,163.25,23h8.5a4.58,4.58,0,0,0,.83-.08A2,2,0,0,1,171.14,21.33ZM169.2,5.24a3.57,3.57,0,0,1,.89.65l3,2.9a4.1,4.1,0,0,1,.67.88h-3.67a.85.85,0,0,1-.85-.84Z"/><path class="cls-3" d="M177.5,17.88l-.53-.3.07-.35a4,4,0,0,0,0-1.47l-.07-.34.53-.31a1,1,0,0,0,.47-.61,1,1,0,0,0-.71-1.22,1,1,0,0,0-.76.1l-.5.29h0l-.27-.23a3.86,3.86,0,0,0-1.26-.72l-.14-.05-.2-.07V12a1,1,0,0,0-.26-.67,1,1,0,0,0-1.47,0,1,1,0,0,0-.27.67v.61l-.33.11a4.15,4.15,0,0,0-1.27.74l-.27.23-.53-.31a1,1,0,0,0-1.36.37s0,.06,0,.08a1,1,0,0,0,.4,1.28l.52.31v.08l-.05.27a4,4,0,0,0,0,1.46l.06.35-.12.07-.4.23a1,1,0,0,0-.49.95.89.89,0,0,0,.12.42,1,1,0,0,0,1.36.36l.53-.3.27.23a3.93,3.93,0,0,0,1.27.73l.33.12V21a.94.94,0,0,0,.06.29A1,1,0,0,0,174.1,21v-.61l.34-.12a4.07,4.07,0,0,0,1.26-.73l.25-.21,0,0,.53.3a1,1,0,0,0,.76.1,1,1,0,0,0,.71-1.22A1,1,0,0,0,177.5,17.88Zm-3.2.8a2.56,2.56,0,0,1-1.2.32,2.5,2.5,0,0,1-2.5-2.5,2.56,2.56,0,0,1,.21-1,2.45,2.45,0,0,1,.89-1.07,2.49,2.49,0,0,1,1.4-.43,2.44,2.44,0,0,1,1.2.32,2.48,2.48,0,0,1,0,4.36Z"/><path class="cls-3" d="M115.47,19.75h0a2,2,0,0,1,.35-2.44c-.33.09-.66.18-1,.25V23h2.6V20.73A2,2,0,0,1,115.47,19.75Z"/><path class="cls-3" d="M107.15,16.52a14.56,14.56,0,0,0,8.95,0c0-.21,0-.42,0-.62a2,2,0,0,1-.92-1.76,10.69,10.69,0,0,1-7.95,1.94A.21.21,0,0,0,107.15,16.52Z"/><path class="cls-3" d="M117.27,12.26a1.88,1.88,0,0,1,.86.21,5.2,5.2,0,0,1,1-.56,2,2,0,0,1,3.92-.47,11,11,0,0,0,1.63-4.2H127l-2.55-2.12L121.9,3l-2.54,2.12-2.55,2.12h2.79A10.76,10.76,0,0,1,117.27,12.26Z"/><path class="cls-3" d="M124.07,12.47a2,2,0,0,1,1.19-.2V7.87h-.06a11.78,11.78,0,0,1-1.82,4.18A4.89,4.89,0,0,1,124.07,12.47Z"/><path class="cls-3" d="M119.1,21.08l-.36-.18V23h2.61v0a1.9,1.9,0,0,1-.25,0A2,2,0,0,1,119.1,21.08Z"/><path class="cls-3" d="M107,23h2.61V17.72a14.53,14.53,0,0,1-2.61-.6Z"/><path class="cls-3" d="M123.1,21.08a2,2,0,0,1-.45,1.17V23h2.61V20.72a2,2,0,0,1-1.19-.2A4.9,4.9,0,0,1,123.1,21.08Z"/><path class="cls-3" d="M110.91,17.85V23h2.61V17.77a15.44,15.44,0,0,1-1.81.1Z"/><path class="cls-3" d="M125.5,15.11a1,1,0,0,0,.47-.61,1,1,0,0,0-.71-1.22h0a1,1,0,0,0-.76.1l-.53.3-.27-.23a4.1,4.1,0,0,0-.94-.58l-.32-.14-.3-.11h0V12a1,1,0,0,0-2,0v.61l-.33.11a4.15,4.15,0,0,0-1.27.74l-.27.23-.53-.31a1,1,0,0,0-1,1.73l.52.31-.06.35a3,3,0,0,0,0,.43,3.75,3.75,0,0,0,0,.67c0,.12,0,.24,0,.36l.06.35-.52.3a1,1,0,0,0-.37,1.37,1,1,0,0,0,1.09.45.78.78,0,0,0,.27-.09l.53-.3.27.23.24.17a4.12,4.12,0,0,0,1,.56l.33.12V21a.94.94,0,0,0,1.25.95,1,1,0,0,0,.75-.95v-.61l.34-.12.21-.1a3.86,3.86,0,0,0,1-.63l.27-.23.53.3a1,1,0,0,0,.76.1h0a1,1,0,0,0,.71-1.22,1,1,0,0,0-.47-.61l-.24-.14-.29-.16.07-.35a4,4,0,0,0,0-1.47l-.07-.34.29-.17Zm-2.85,3.33a2.39,2.39,0,0,1-1.3.53,1.9,1.9,0,0,1-.25,0,2.5,2.5,0,0,1-2.36-1.72,2.36,2.36,0,0,1,.17-2A2.53,2.53,0,0,1,120.74,14l.36,0a2.52,2.52,0,0,1,2.5,2.5A2.45,2.45,0,0,1,122.65,18.44Z"/><path class="cls-3" d="M100.44,10.65l-.59-.34.08-.39a4.41,4.41,0,0,0,0-1.62l-.08-.39.59-.34A1.07,1.07,0,0,0,101,6.9a1.1,1.1,0,0,0-.79-1.36,1.08,1.08,0,0,0-.84.11L98.74,6l-.3-.26A4.27,4.27,0,0,0,97,4.92l-.38-.13V4.11a1.11,1.11,0,1,0-2.22,0v.68l-.37.13a4.57,4.57,0,0,0-1.29.73A2.24,2.24,0,0,1,92,8.49a5.14,5.14,0,0,1,0,1.24,2.27,2.27,0,0,1,.91,1.16,2.5,2.5,0,0,1,.24.9,5.85,5.85,0,0,1,1.08.63,2.21,2.21,0,0,1,2.94.84,4.47,4.47,0,0,0,1.3-.77l.3-.26.59.35a1.12,1.12,0,0,0,1.52-.41,1.1,1.1,0,0,0,.11-.85A1.12,1.12,0,0,0,100.44,10.65Zm-4.89,1.24a2.78,2.78,0,1,1,2.78-2.78A2.79,2.79,0,0,1,95.55,11.89Z"/><path class="cls-3" d="M87.59,12.42a5.85,5.85,0,0,1,1.08-.63,2.2,2.2,0,0,1,1-1.73,2.29,2.29,0,0,1,1-.37l.24,0a4.49,4.49,0,0,0,0-1.37l-.07-.39L91,7.77l.34-.2a1.05,1.05,0,0,0,.51-.67,1.1,1.1,0,0,0-.11-.85,1.05,1.05,0,0,0-.67-.51h0a1.12,1.12,0,0,0-.8.12L89.7,6l-.06,0-.3-.26-.12-.08a4.57,4.57,0,0,0-1.29-.73l-.37-.13V4.11a1.12,1.12,0,0,0-2.23,0v.68L85,4.92a4.46,4.46,0,0,0-1.4.81l-.3.26-.59-.34a1.11,1.11,0,0,0-1.11,1.93l.58.33-.07.39a4.47,4.47,0,0,0,0,1.63l.07.38-.58.34a1.11,1.11,0,0,0,1.11,1.93l.59-.34.29.25a4.24,4.24,0,0,0,1.15.69A2.22,2.22,0,0,1,87.59,12.42ZM83.67,9.11a2.78,2.78,0,1,1,2.78,2.78A2.78,2.78,0,0,1,83.67,9.11Z"/><path class="cls-3" d="M96.12,15.05a1,1,0,0,0,.18-.38,1.08,1.08,0,0,0-.11-.84,1.11,1.11,0,0,0-.68-.52,1.08,1.08,0,0,0-.84.11l-.23.14-.36.2-.29-.25a4.24,4.24,0,0,0-1.15-.69c-.09,0-.17-.09-.26-.12l-.27-.1-.1,0v-.68a1.09,1.09,0,0,0-.15-.52,1.1,1.1,0,0,0-1-.59,1.08,1.08,0,0,0-.56.17,1.12,1.12,0,0,0-.55.94v.67l-.37.14-.1,0a4.66,4.66,0,0,0-1.31.77l-.3.26-.14-.09-.44-.26a1.12,1.12,0,0,0-1.52.41,1.08,1.08,0,0,0-.12.8,1.12,1.12,0,0,0,.52.72l.59.34v.08l-.06.31a2.11,2.11,0,0,0,0,.25,4.49,4.49,0,0,0,0,1.37l.07.39-.59.34a1.11,1.11,0,1,0,1.12,1.92L87.7,20l.3.26a4.51,4.51,0,0,0,1.41.81l.37.13v.68a1.12,1.12,0,0,0,2.23,0v-.68l.37-.13a4.46,4.46,0,0,0,1.4-.81l.3-.26.59.34a1.12,1.12,0,0,0,1.52-.41,1.12,1.12,0,0,0-.41-1.52l-.58-.33.07-.39a4.63,4.63,0,0,0,0-1.39c0-.08,0-.16,0-.24l-.06-.33v-.05l.58-.34A1.1,1.1,0,0,0,96.12,15.05Zm-5.23,4.62a2.78,2.78,0,1,1,2.78-2.78A2.79,2.79,0,0,1,90.89,19.67Z"/><circle class="cls-7" cx="36.5" cy="8" r="3.33"/><path class="cls-3" d="M36.5,13a5,5,0,1,0-5-5A5,5,0,0,0,36.5,13Zm0-8.33A3.33,3.33,0,1,1,33.17,8,3.33,3.33,0,0,1,36.5,4.67Z"/><path class="cls-3" d="M36.5,14.67a7.5,7.5,0,0,0-7.5,7.5.83.83,0,0,0,.83.83.84.84,0,0,0,.84-.83,5.84,5.84,0,0,1,5.83-5.84c.2,0,.41,0,.61,0a6.62,6.62,0,0,1,.5-1.6A6.74,6.74,0,0,0,36.5,14.67Z"/><path class="cls-3" d="M43.5,12a5.48,5.48,0,0,0-4.88,3,5.08,5.08,0,0,0-.53,1.58,4.83,4.83,0,0,0-.09.94A5.5,5.5,0,0,0,43.06,23h.44a5.5,5.5,0,0,0,0-11Zm3.11,4.4-3,3.08-.09.05a1.08,1.08,0,0,1-.73.29,1.14,1.14,0,0,1-.81-.34l-.88-.9-.7-.72a.67.67,0,0,1,0-.79.52.52,0,0,1,.39-.17.53.53,0,0,1,.4.17l1.58,1.62.24-.25,2.82-2.83a.56.56,0,0,1,.4-.17h0a.52.52,0,0,1,.39.17A.57.57,0,0,1,46.61,16.4Z"/><path class="cls-3" d="M19.18,15V12a3.46,3.46,0,0,1,1.18.74L22,14.36a3.3,3.3,0,0,1,.76,1.15H19.66a.47.47,0,0,1-.48-.47ZM23,16.67v4A2.37,2.37,0,0,1,20.61,23H15.84a2.37,2.37,0,0,1-2.39-2.34V14.11a2.38,2.38,0,0,1,2.39-2.35H18l.23,0V15a1.43,1.43,0,0,0,1.44,1.41H23c0,.07,0,.15,0,.22Zm-3.82,4a.47.47,0,0,0-.48-.47H16.31a.47.47,0,0,0,0,.94H18.7A.47.47,0,0,0,19.18,20.66Zm1.43-1.87a.47.47,0,0,0-.48-.47H16.31a.47.47,0,0,0-.47.47.46.46,0,0,0,.47.46h3.82A.46.46,0,0,0,20.61,18.79Z"/><circle class="cls-7" cx="10.5" cy="8" r="3.33"/><path class="cls-3" d="M10.5,3a5,5,0,1,0,5,5A5,5,0,0,0,10.5,3Zm0,8.33A3.33,3.33,0,1,1,13.83,8,3.33,3.33,0,0,1,10.5,11.33Z"/><path class="cls-3" d="M10.5,14.67A7.5,7.5,0,0,0,3,22.17a.83.83,0,0,0,.83.83.84.84,0,0,0,.84-.83,5.84,5.84,0,0,1,5.83-5.84,5.7,5.7,0,0,1,1.9.33V14.94A7.45,7.45,0,0,0,10.5,14.67Z"/><path class="cls-7" d="M69.1,15a1.5,1.5,0,0,0,0,3,1.49,1.49,0,0,0,1.2-.61V15.6A1.51,1.51,0,0,0,69.1,15Z"/><path class="cls-7" d="M66.05,9.67h3.67a4.4,4.4,0,0,0-.66-.88l-3-2.9a3.57,3.57,0,0,0-.89-.65V8.83A.85.85,0,0,0,66.05,9.67Z"/><path class="cls-3" d="M64.13,17.06a6,6,0,0,1,0-.95l-.87.81,0,0a.87.87,0,0,1-1.2-.07l-1.34-1.18a.85.85,0,0,0-1.2.07A.82.82,0,0,0,59.53,17l1.31,1.14a2.57,2.57,0,0,0,2.37.66A2,2,0,0,1,64.13,17.06Z"/><path class="cls-3" d="M71.05,21.42a3.77,3.77,0,0,0,.37-.52c-.11.05-.21.13-.32.18A1.27,1.27,0,0,1,71.05,21.42Z"/><path class="cls-3" d="M67.14,21.33H59.25a2.52,2.52,0,0,1-2.55-2.5V7.17a2.52,2.52,0,0,1,2.55-2.5h3.84a2.85,2.85,0,0,1,.41,0V8.83a2.52,2.52,0,0,0,2.55,2.5h1.18a2,2,0,0,1,3.87.58,5,5,0,0,1,.9.51v-.68a5.76,5.76,0,0,0-1.74-4.13l-3-2.9A6,6,0,0,0,63.09,3H59.25A4.21,4.21,0,0,0,55,7.17V18.83A4.21,4.21,0,0,0,59.25,23h8.5a4.58,4.58,0,0,0,.83-.08A2,2,0,0,1,67.14,21.33ZM65.2,5.24a3.57,3.57,0,0,1,.89.65l3,2.9a4.4,4.4,0,0,1,.66.88H66.05a.85.85,0,0,1-.85-.84Z"/><path class="cls-3" d="M73.5,17.88l-.53-.3.07-.35a4,4,0,0,0,0-1.47L73,15.42l.53-.31A1,1,0,0,0,74,14.5a1,1,0,0,0-.71-1.22,1,1,0,0,0-.76.1l-.5.29h0l-.27-.23a3.86,3.86,0,0,0-1.26-.72l-.14-.05-.2-.07V12a1,1,0,0,0-.26-.67,1,1,0,0,0-1.47,0,1,1,0,0,0-.27.67v.61l-.33.11a4.15,4.15,0,0,0-1.27.74l-.27.23-.53-.31a1,1,0,0,0-1,1.73l.29.18.23.13-.06.35a4,4,0,0,0,0,1.46l0,.17,0,.18-.52.3a1,1,0,0,0-.37,1.37,1,1,0,0,0,1.36.36l.53-.3.27.23a3.93,3.93,0,0,0,1.27.73l.33.12V21a.94.94,0,0,0,.06.29A1,1,0,0,0,70.1,21v-.61l.34-.12a4.07,4.07,0,0,0,1.26-.73l.25-.21,0,0,.53.3a1,1,0,0,0,.76.1A1,1,0,0,0,74,18.49,1,1,0,0,0,73.5,17.88Zm-3.2.8a2.56,2.56,0,0,1-1.2.32,2.5,2.5,0,0,1-2.5-2.5,2.22,2.22,0,0,1,.05-.45A2.49,2.49,0,0,1,69.1,14a2.44,2.44,0,0,1,1.2.32,2.48,2.48,0,0,1,0,4.36Z"/><g id="Sign-out-alt"><path class="cls-3" d="M220.67,15.5a.84.84,0,0,0-.85.83v2.5a2.51,2.51,0,0,1-2.52,2.5h-2.09a2.52,2.52,0,0,1-2.53-2.5V7.17a2.52,2.52,0,0,1,2.53-2.5h2.09a2.51,2.51,0,0,1,2.52,2.5v2.5a.85.85,0,0,0,1.69,0V7.17A4.2,4.2,0,0,0,217.3,3h-2.09A4.2,4.2,0,0,0,211,7.17V18.83A4.2,4.2,0,0,0,215.21,23h2.09a4.2,4.2,0,0,0,4.21-4.17v-2.5A.84.84,0,0,0,220.67,15.5Z"/><path class="cls-3" d="M230.26,11.23,226.4,7.41a.85.85,0,0,0-1.19,0,.82.82,0,0,0,0,1.18l0,0,3.59,3.55-12.75,0a.83.83,0,1,0,0,1.66h0l12.8,0-3.64,3.6a.83.83,0,0,0,0,1.18.86.86,0,0,0,1.2,0l0,0,3.86-3.82A2.48,2.48,0,0,0,230.26,11.23Z"/></g><g id="Pulse-2" data-name="Pulse"><path d="M148.83,56H137.17A4.13,4.13,0,0,0,133,60.09v6.55a4.14,4.14,0,0,0,4.17,4.09h5v1.63h-3.34a.82.82,0,1,0,0,1.64h8.34a.82.82,0,1,0,0-1.64h-3.34V70.73h5A4.14,4.14,0,0,0,153,66.64V60.09A4.13,4.13,0,0,0,148.83,56Zm2.5,10.83a2.5,2.5,0,0,1-2.5,2.5H137.17a2.5,2.5,0,0,1-2.5-2.5V60.17a2.5,2.5,0,0,1,2.5-2.5h11.66a2.5,2.5,0,0,1,2.5,2.5Zm-1.66-3.33a.84.84,0,0,1-.84.83h-2.47L145,66.46a.85.85,0,0,1-.7.37h-.05a.82.82,0,0,1-.7-.46l-1.85-3.71-.87,1.3a.85.85,0,0,1-.7.37h-2.91a.83.83,0,1,1,0-1.66h2.47l1.41-2.13a.83.83,0,0,1,.75-.37.82.82,0,0,1,.7.46l1.85,3.71.87-1.3a.83.83,0,0,1,.7-.37h2.91A.84.84,0,0,1,149.67,63.5Z"/></g><circle cx="194.5" cy="60" r="5"/><path d="M194.5,66.67a7.5,7.5,0,0,0-7.5,7.5.83.83,0,0,0,.83.83h13.34a.83.83,0,0,0,.83-.83A7.5,7.5,0,0,0,194.5,66.67Z"/><path d="M167.26,65.83H164.1a.84.84,0,1,0,0,1.67h3.56A2,2,0,0,1,167.26,65.83Z"/><path d="M168,69.17h-3.9a.83.83,0,1,0,0,1.66h3.12A2,2,0,0,1,168,69.17Z"/><path d="M175.05,73.42a3.77,3.77,0,0,0,.37-.52c-.11,0-.21.13-.32.18A1.27,1.27,0,0,1,175.05,73.42Z"/><path d="M171.14,73.33h-7.89a2.52,2.52,0,0,1-2.55-2.5V59.17a2.52,2.52,0,0,1,2.55-2.5h3.84a2.85,2.85,0,0,1,.41,0v4.12a2.52,2.52,0,0,0,2.55,2.5h1.18a2,2,0,0,1,3.87.58,5,5,0,0,1,.9.51v-.68a5.76,5.76,0,0,0-1.74-4.13l-3-2.9A6,6,0,0,0,167.09,55h-3.84A4.21,4.21,0,0,0,159,59.17V70.83A4.21,4.21,0,0,0,163.25,75h8.5a4.58,4.58,0,0,0,.83-.08A2,2,0,0,1,171.14,73.33ZM169.2,57.24a3.57,3.57,0,0,1,.89.65l3,2.9a4.1,4.1,0,0,1,.67.88h-3.67a.85.85,0,0,1-.85-.84Z"/><path d="M177.5,69.88l-.53-.3.07-.35a4,4,0,0,0,0-1.47l-.07-.34.53-.31a1,1,0,0,0,.47-.61,1,1,0,0,0-.71-1.22,1,1,0,0,0-.76.1l-.5.29h0l-.27-.23a3.86,3.86,0,0,0-1.26-.72l-.14,0-.2-.07V64a1,1,0,0,0-.26-.67,1,1,0,0,0-1.47,0,1,1,0,0,0-.27.67v.61l-.33.11a4.15,4.15,0,0,0-1.27.74l-.27.23-.53-.31a1,1,0,0,0-1.36.37s0,.06,0,.08a1,1,0,0,0,.4,1.28l.52.31v.08l-.05.27a4,4,0,0,0,0,1.46l.06.35-.12.07-.4.23a1,1,0,0,0-.49,1,.89.89,0,0,0,.12.42,1,1,0,0,0,1.36.36l.53-.3.27.23a3.93,3.93,0,0,0,1.27.73l.33.12V73a.94.94,0,0,0,.06.29A1,1,0,0,0,174.1,73v-.61l.34-.12a4.07,4.07,0,0,0,1.26-.73l.25-.21,0,0,.53.3a1,1,0,0,0,.76.1,1,1,0,0,0,.71-1.22A1,1,0,0,0,177.5,69.88Zm-3.2.8a2.56,2.56,0,0,1-1.2.32,2.5,2.5,0,0,1-2.5-2.5,2.56,2.56,0,0,1,.21-1,2.45,2.45,0,0,1,.89-1.07,2.49,2.49,0,0,1,1.4-.43,2.44,2.44,0,0,1,1.2.32,2.48,2.48,0,0,1,0,4.36Z"/><path d="M115.47,71.75h0a2,2,0,0,1,.35-2.44c-.33.09-.66.18-1,.25V75h2.6V72.73A2,2,0,0,1,115.47,71.75Z"/><path d="M107.15,68.52a14.56,14.56,0,0,0,8.95,0c0-.21,0-.42,0-.62a2,2,0,0,1-.92-1.76,10.69,10.69,0,0,1-7.95,1.94A.21.21,0,0,0,107.15,68.52Z"/><path d="M117.27,64.26a1.88,1.88,0,0,1,.86.21,5.2,5.2,0,0,1,1-.56,2,2,0,0,1,3.92-.47,11,11,0,0,0,1.63-4.2H127l-2.55-2.12L121.9,55l-2.54,2.12-2.55,2.12h2.79A10.76,10.76,0,0,1,117.27,64.26Z"/><path d="M124.07,64.47a2,2,0,0,1,1.19-.2v-4.4h-.06a11.78,11.78,0,0,1-1.82,4.18A4.89,4.89,0,0,1,124.07,64.47Z"/><path d="M119.1,73.08l-.36-.18V75h2.61v0a1.9,1.9,0,0,1-.25,0A2,2,0,0,1,119.1,73.08Z"/><path d="M107,75h2.61V69.72a14.53,14.53,0,0,1-2.61-.6Z"/><path d="M123.1,73.08a2,2,0,0,1-.45,1.17V75h2.61V72.72a2,2,0,0,1-1.19-.2A4.9,4.9,0,0,1,123.1,73.08Z"/><path d="M110.91,69.85V75h2.61V69.77a15.44,15.44,0,0,1-1.81.1Z"/><path d="M125.5,67.11a1,1,0,0,0,.47-.61,1,1,0,0,0-.71-1.22h0a1,1,0,0,0-.76.1l-.53.3-.27-.23a4.1,4.1,0,0,0-.94-.58l-.32-.14-.3-.11h0V64a1,1,0,0,0-2,0v.61l-.33.11a4.15,4.15,0,0,0-1.27.74l-.27.23-.53-.31a1,1,0,0,0-1,1.73l.52.31-.06.35a3,3,0,0,0,0,.43,3.75,3.75,0,0,0,0,.67c0,.12,0,.24,0,.36l.06.35-.52.3a1,1,0,0,0-.37,1.37,1,1,0,0,0,1.09.45.78.78,0,0,0,.27-.09l.53-.3.27.23.24.17a4.12,4.12,0,0,0,1,.56l.33.12V73a.94.94,0,0,0,1.25,1,1,1,0,0,0,.75-1v-.61l.34-.12.21-.1a3.86,3.86,0,0,0,1-.63l.27-.23.53.3a1,1,0,0,0,.76.1h0a1,1,0,0,0,.71-1.22,1,1,0,0,0-.47-.61l-.24-.14-.29-.16.07-.35a4,4,0,0,0,0-1.47l-.07-.34.29-.17Zm-2.85,3.33a2.39,2.39,0,0,1-1.3.53,1.9,1.9,0,0,1-.25,0,2.5,2.5,0,0,1-2.36-1.72,2.36,2.36,0,0,1,.17-2A2.53,2.53,0,0,1,120.74,66c.12,0,.24,0,.36,0a2.52,2.52,0,0,1,2.5,2.5A2.45,2.45,0,0,1,122.65,70.44Z"/><path d="M100.44,62.65l-.59-.34.08-.39a4.41,4.41,0,0,0,0-1.62l-.08-.39.59-.34a1.07,1.07,0,0,0,.52-.67,1.1,1.1,0,0,0-.79-1.36,1.08,1.08,0,0,0-.84.11l-.59.34-.3-.26a4.27,4.27,0,0,0-1.4-.81l-.38-.13v-.68a1.11,1.11,0,0,0-2.22,0v.68l-.37.13a4.57,4.57,0,0,0-1.29.73A2.24,2.24,0,0,1,92,60.49a5.14,5.14,0,0,1,0,1.24,2.27,2.27,0,0,1,.91,1.16,2.5,2.5,0,0,1,.24.9,5.85,5.85,0,0,1,1.08.63,2.21,2.21,0,0,1,2.94.84,4.47,4.47,0,0,0,1.3-.77l.3-.26.59.35a1.12,1.12,0,0,0,1.52-.41,1.1,1.1,0,0,0,.11-.85A1.12,1.12,0,0,0,100.44,62.65Zm-4.89,1.24a2.78,2.78,0,1,1,2.78-2.78A2.79,2.79,0,0,1,95.55,63.89Z"/><path d="M87.59,64.42a5.85,5.85,0,0,1,1.08-.63,2.2,2.2,0,0,1,1-1.73,2.29,2.29,0,0,1,1-.37l.24,0a4.49,4.49,0,0,0,0-1.37l-.07-.39.25-.14.34-.2a1.05,1.05,0,0,0,.51-.67,1.1,1.1,0,0,0-.11-.85,1.05,1.05,0,0,0-.67-.51h0a1.12,1.12,0,0,0-.8.12l-.52.3-.06,0-.3-.26-.12-.08a4.57,4.57,0,0,0-1.29-.73l-.37-.13v-.68a1.12,1.12,0,0,0-2.23,0v.68l-.37.13a4.46,4.46,0,0,0-1.4.81l-.3.26-.59-.34a1.11,1.11,0,0,0-1.11,1.93l.58.33-.07.39a4.47,4.47,0,0,0,0,1.63l.07.38-.58.34a1.11,1.11,0,1,0,1.11,1.93l.59-.34.29.25a4.24,4.24,0,0,0,1.15.69A2.22,2.22,0,0,1,87.59,64.42Zm-3.92-3.31a2.78,2.78,0,1,1,2.78,2.78A2.78,2.78,0,0,1,83.67,61.11Z"/><path d="M96.12,67.05a1,1,0,0,0,.18-.38,1.08,1.08,0,0,0-.11-.84,1.11,1.11,0,0,0-.68-.52,1.08,1.08,0,0,0-.84.11l-.23.14-.36.2-.29-.25a4.24,4.24,0,0,0-1.15-.69c-.09,0-.17-.09-.26-.12l-.27-.1-.1,0v-.68a1.09,1.09,0,0,0-.15-.52,1.1,1.1,0,0,0-1-.59,1.08,1.08,0,0,0-.56.17,1.12,1.12,0,0,0-.55.94v.67l-.37.14-.1,0a4.66,4.66,0,0,0-1.31.77l-.3.26-.14-.09-.44-.26a1.12,1.12,0,0,0-1.52.41,1.08,1.08,0,0,0-.12.8,1.12,1.12,0,0,0,.52.72l.59.34v.08l-.06.31a2.11,2.11,0,0,0,0,.25,4.49,4.49,0,0,0,0,1.37l.07.39-.59.34a1.11,1.11,0,1,0,1.12,1.92L87.7,72l.3.26a4.51,4.51,0,0,0,1.41.81l.37.13v.68a1.12,1.12,0,0,0,2.23,0v-.68l.37-.13a4.46,4.46,0,0,0,1.4-.81l.3-.26.59.34a1.12,1.12,0,0,0,1.52-.41,1.12,1.12,0,0,0-.41-1.52l-.58-.33.07-.39a4.63,4.63,0,0,0,0-1.39c0-.08,0-.16,0-.24l-.06-.33v0l.58-.34A1.1,1.1,0,0,0,96.12,67.05Zm-5.23,4.62a2.78,2.78,0,1,1,2.78-2.78A2.79,2.79,0,0,1,90.89,71.67Z"/><path d="M36.5,65a5,5,0,1,0-5-5A5,5,0,0,0,36.5,65Zm0-8.33A3.33,3.33,0,1,1,33.17,60,3.33,3.33,0,0,1,36.5,56.67Z"/><path d="M36.5,66.67a7.5,7.5,0,0,0-7.5,7.5.83.83,0,0,0,.83.83.84.84,0,0,0,.84-.83,5.84,5.84,0,0,1,5.83-5.84c.2,0,.41,0,.61,0a6.62,6.62,0,0,1,.5-1.6A6.74,6.74,0,0,0,36.5,66.67Z"/><path d="M43.5,64a5.48,5.48,0,0,0-4.88,3,5.08,5.08,0,0,0-.53,1.58,4.83,4.83,0,0,0-.09.94A5.5,5.5,0,0,0,43.06,75h.44a5.5,5.5,0,0,0,0-11Zm3.11,4.4-3,3.08-.09,0a1.08,1.08,0,0,1-.73.29,1.14,1.14,0,0,1-.81-.34l-.88-.9-.7-.72a.67.67,0,0,1,0-.79.52.52,0,0,1,.39-.17.53.53,0,0,1,.4.17l1.58,1.62.24-.25,2.82-2.83a.56.56,0,0,1,.4-.17h0a.52.52,0,0,1,.39.17A.57.57,0,0,1,46.61,68.4Z"/><path d="M19.18,67V64a3.46,3.46,0,0,1,1.18.74L22,66.36a3.3,3.3,0,0,1,.76,1.15H19.66a.47.47,0,0,1-.48-.47ZM23,68.67v4A2.37,2.37,0,0,1,20.61,75H15.84a2.37,2.37,0,0,1-2.39-2.34V66.11a2.38,2.38,0,0,1,2.39-2.35H18l.23,0V67a1.43,1.43,0,0,0,1.44,1.41H23c0,.07,0,.15,0,.22Zm-3.82,4a.47.47,0,0,0-.48-.47H16.31a.47.47,0,0,0,0,.94H18.7A.47.47,0,0,0,19.18,72.66Zm1.43-1.87a.47.47,0,0,0-.48-.47H16.31a.47.47,0,0,0-.47.47.46.46,0,0,0,.47.46h3.82A.46.46,0,0,0,20.61,70.79Z"/><path d="M10.5,55a5,5,0,1,0,5,5A5,5,0,0,0,10.5,55Zm0,8.33A3.33,3.33,0,1,1,13.83,60,3.33,3.33,0,0,1,10.5,63.33Z"/><path d="M10.5,66.67A7.5,7.5,0,0,0,3,74.17a.83.83,0,0,0,.83.83.84.84,0,0,0,.84-.83,5.84,5.84,0,0,1,5.83-5.84,5.7,5.7,0,0,1,1.9.33V66.94A7.45,7.45,0,0,0,10.5,66.67Z"/><path d="M64.13,69.06a6,6,0,0,1,0-1l-.87.81s0,0,0,0a.87.87,0,0,1-1.2-.07l-1.34-1.18a.85.85,0,0,0-1.2.07A.82.82,0,0,0,59.53,69l1.31,1.14a2.57,2.57,0,0,0,2.37.66A2,2,0,0,1,64.13,69.06Z"/><path d="M71.05,73.42a3.77,3.77,0,0,0,.37-.52c-.11,0-.21.13-.32.18A1.27,1.27,0,0,1,71.05,73.42Z"/><path d="M67.14,73.33H59.25a2.52,2.52,0,0,1-2.55-2.5V59.17a2.52,2.52,0,0,1,2.55-2.5h3.84a2.85,2.85,0,0,1,.41,0v4.12a2.52,2.52,0,0,0,2.55,2.5h1.18a2,2,0,0,1,3.87.58,5,5,0,0,1,.9.51v-.68a5.76,5.76,0,0,0-1.74-4.13l-3-2.9A6,6,0,0,0,63.09,55H59.25A4.21,4.21,0,0,0,55,59.17V70.83A4.21,4.21,0,0,0,59.25,75h8.5a4.58,4.58,0,0,0,.83-.08A2,2,0,0,1,67.14,73.33ZM65.2,57.24a3.57,3.57,0,0,1,.89.65l3,2.9a4.4,4.4,0,0,1,.66.88H66.05a.85.85,0,0,1-.85-.84Z"/><path d="M73.5,69.88l-.53-.3.07-.35a4,4,0,0,0,0-1.47L73,67.42l.53-.31A1,1,0,0,0,74,66.5a1,1,0,0,0-.71-1.22,1,1,0,0,0-.76.1l-.5.29h0l-.27-.23a3.86,3.86,0,0,0-1.26-.72l-.14,0-.2-.07V64a1,1,0,0,0-.26-.67,1,1,0,0,0-1.47,0,1,1,0,0,0-.27.67v.61l-.33.11a4.15,4.15,0,0,0-1.27.74l-.27.23-.53-.31a1,1,0,0,0-1,1.73l.29.18.23.13-.06.35a4,4,0,0,0,0,1.46l0,.17,0,.18-.52.3a1,1,0,0,0-.37,1.37,1,1,0,0,0,1.36.36l.53-.3.27.23a3.93,3.93,0,0,0,1.27.73l.33.12V73a.94.94,0,0,0,.06.29A1,1,0,0,0,70.1,73v-.61l.34-.12a4.07,4.07,0,0,0,1.26-.73l.25-.21,0,0,.53.3a1,1,0,0,0,.76.1A1,1,0,0,0,74,70.49,1,1,0,0,0,73.5,69.88Zm-3.2.8a2.56,2.56,0,0,1-1.2.32,2.5,2.5,0,0,1-2.5-2.5,2.22,2.22,0,0,1,.05-.45,2.49,2.49,0,0,1,2.45-2,2.44,2.44,0,0,1,1.2.32,2.48,2.48,0,0,1,0,4.36Z"/><g id="Sign-out-alt-2" data-name="Sign-out-alt"><path d="M222.67,67.5a.84.84,0,0,0-.85.83v2.5a2.51,2.51,0,0,1-2.52,2.5h-4.09a2.52,2.52,0,0,1-2.53-2.5V59.17a2.52,2.52,0,0,1,2.53-2.5h4.09a2.51,2.51,0,0,1,2.52,2.5v2.5a.85.85,0,0,0,1.69,0v-2.5A4.2,4.2,0,0,0,219.3,55h-4.09A4.2,4.2,0,0,0,211,59.17V70.83A4.2,4.2,0,0,0,215.21,75h4.09a4.2,4.2,0,0,0,4.21-4.17v-2.5A.84.84,0,0,0,222.67,67.5Z"/><path d="M230.26,63.23l-3.86-3.82a.85.85,0,0,0-1.19,0,.82.82,0,0,0,0,1.18l0,0,3.59,3.55-12.75,0a.83.83,0,1,0,0,1.66h0l12.8,0-3.64,3.6a.83.83,0,0,0,0,1.18.86.86,0,0,0,1.2,0l0,0,3.86-3.82A2.48,2.48,0,0,0,230.26,63.23Z"/></g><g id="Layer_2" data-name="Layer 2"><g id="Layer_1-2" data-name="Layer 1-2"><path class="cls-8" d="M47.94,31.07a3.6,3.6,0,0,0-5.13,0L32.55,41.36a2.2,2.2,0,0,0,0,3.06l0,0a2.16,2.16,0,0,0,3.08,0l7.18-7.2a.73.73,0,0,0,0-1h0a.71.71,0,0,0-1,0l-7.19,7.2a.71.71,0,0,1-1,0,.72.72,0,0,1,0-1h0L43.84,32.1a2.16,2.16,0,0,1,3.08,0,2.19,2.19,0,0,1,0,3l0,0L36.66,45.48a3.64,3.64,0,0,1-5.2-5.09l.05-.06,7.19-7.2a.74.74,0,0,0,0-1h0a.72.72,0,0,0-1,0l-7.19,7.2a5.12,5.12,0,0,0-.07,7.13l.07.08a5.08,5.08,0,0,0,7.19,0l10.27-10.3A3.65,3.65,0,0,0,48,31.12.12.12,0,0,0,47.94,31.07Z"/><path class="cls-4" d="M31.51,39.3h0a.72.72,0,0,0,1,0l3.08-3.09a.73.73,0,0,0,0-1h0a.74.74,0,0,0-1,0l-3.08,3.09a.73.73,0,0,0,0,1Z"/><path class="cls-4" d="M39.22,35.7h0a.74.74,0,0,0,1,0l3.08-3.09a.73.73,0,0,0,0-1h0a.72.72,0,0,0-1,0l-3.08,3.09a.73.73,0,0,0,0,1Z"/><path class="cls-4" d="M45.88,36.21l-4.1,4.12a.74.74,0,0,0,0,1h0a.72.72,0,0,0,1,0l4.11-4.12a.74.74,0,0,0,0-1h0A.73.73,0,0,0,45.88,36.21Z"/><path class="cls-4" d="M39.22,43.94h0a.74.74,0,0,0,1,0l1-1a.73.73,0,0,0,0-1h0a.71.71,0,0,0-1,0l-1,1a.72.72,0,0,0,0,1Z"/><path class="cls-4" d="M35.63,43.42h0a.74.74,0,0,0,1,0l1-1a.72.72,0,0,0,0-1h0a.71.71,0,0,0-1,0l-1,1a.72.72,0,0,0,0,1Z"/></g></g><path class="cls-3" d="M65,29A10,10,0,1,0,75,39,10,10,0,0,0,65,29Zm0,3.5a3.25,3.25,0,1,1-3.25,3.25A3.26,3.26,0,0,1,65,32.5Zm4.33,13H60.67a.54.54,0,0,1-.54-.54,4.88,4.88,0,1,1,9.75,0A.55.55,0,0,1,69.33,45.5Z"/><path d="M247,55a10,10,0,1,0,10,10A10,10,0,0,0,247,55Zm0,3.5a3.25,3.25,0,1,1-3.25,3.25A3.26,3.26,0,0,1,247,58.5Zm4.33,13h-8.66a.54.54,0,0,1-.54-.54,4.88,4.88,0,1,1,9.75,0A.55.55,0,0,1,251.33,71.5Z"/><path class="cls-7" d="M148.83,83.67H137.17a2.5,2.5,0,0,0-2.5,2.5v6.66a2.5,2.5,0,0,0,2.5,2.5h11.66a2.5,2.5,0,0,0,2.5-2.5V86.17A2.5,2.5,0,0,0,148.83,83.67Zm0,6.66h-2.47L145,92.46a.85.85,0,0,1-.7.37h-.05a.82.82,0,0,1-.7-.46l-1.85-3.71-.87,1.3a.85.85,0,0,1-.7.37h-2.91a.83.83,0,1,1,0-1.66h2.47l1.41-2.13a.83.83,0,0,1,.75-.37.82.82,0,0,1,.7.46l1.85,3.71.87-1.3a.83.83,0,0,1,.7-.37h2.91a.83.83,0,1,1,0,1.66Z"/><path class="cls-9" d="M148.83,88.67h-2.91a.83.83,0,0,0-.7.37l-.87,1.3-1.85-3.71a.82.82,0,0,0-.7-.46.83.83,0,0,0-.75.37l-1.41,2.13h-2.47a.83.83,0,1,0,0,1.66h2.91a.85.85,0,0,0,.7-.37l.87-1.3,1.85,3.71a.82.82,0,0,0,.7.46h.05a.85.85,0,0,0,.7-.37l1.41-2.13h2.47a.83.83,0,1,0,0-1.66Z"/><path class="cls-3" d="M148.83,82H137.17A4.13,4.13,0,0,0,133,86.09v6.55a4.14,4.14,0,0,0,4.17,4.09h5v1.63h-3.34a.82.82,0,1,0,0,1.64h8.34a.82.82,0,1,0,0-1.64h-3.34V96.73h5A4.14,4.14,0,0,0,153,92.64V86.09A4.13,4.13,0,0,0,148.83,82Zm2.5,10.83a2.5,2.5,0,0,1-2.5,2.5H137.17a2.5,2.5,0,0,1-2.5-2.5V86.17a2.5,2.5,0,0,1,2.5-2.5h11.66a2.5,2.5,0,0,1,2.5,2.5Z"/><circle class="cls-9" cx="194.5" cy="86" r="5"/><path class="cls-3" d="M194.5,92.67a7.5,7.5,0,0,0-7.5,7.5.83.83,0,0,0,.83.83h13.34a.83.83,0,0,0,.83-.83A7.5,7.5,0,0,0,194.5,92.67Z"/><path class="cls-3" d="M167.26,91.83H164.1a.84.84,0,1,0,0,1.67h3.56A2,2,0,0,1,167.26,91.83Z"/><path class="cls-3" d="M168,95.17h-3.9a.83.83,0,1,0,0,1.66h3.12A2,2,0,0,1,168,95.17Z"/><path class="cls-3" d="M175.05,99.42a3.77,3.77,0,0,0,.37-.52c-.11,0-.21.13-.32.18A1.27,1.27,0,0,1,175.05,99.42Z"/><path class="cls-3" d="M171.14,99.33h-7.89a2.52,2.52,0,0,1-2.55-2.5V85.17a2.52,2.52,0,0,1,2.55-2.5h3.84a2.85,2.85,0,0,1,.41,0v4.12a2.52,2.52,0,0,0,2.55,2.5h1.18a2,2,0,0,1,3.87.58,5,5,0,0,1,.9.51v-.68a5.76,5.76,0,0,0-1.74-4.13l-3-2.9A6,6,0,0,0,167.09,81h-3.84A4.21,4.21,0,0,0,159,85.17V96.83a4.21,4.21,0,0,0,4.25,4.17h8.5a4.58,4.58,0,0,0,.83-.08A2,2,0,0,1,171.14,99.33ZM169.2,83.24a3.57,3.57,0,0,1,.89.65l3,2.9a4.1,4.1,0,0,1,.67.88h-3.67a.85.85,0,0,1-.85-.84Z"/><path class="cls-9" d="M177.5,95.88l-.53-.3.07-.35a4,4,0,0,0,0-1.47l-.07-.34.53-.31a1,1,0,0,0,.47-.61,1,1,0,0,0-.71-1.22,1,1,0,0,0-.76.1l-.5.29h0l-.27-.23a3.86,3.86,0,0,0-1.26-.72l-.14,0-.2-.07V90a1,1,0,0,0-.26-.67,1,1,0,0,0-1.47,0,1,1,0,0,0-.27.67v.61l-.33.11a4.15,4.15,0,0,0-1.27.74l-.27.23-.53-.31a1,1,0,0,0-1.36.37s0,.06,0,.08a1,1,0,0,0,.4,1.28l.52.31v.08l-.05.27a4,4,0,0,0,0,1.46l.06.35-.12.07-.4.23a1,1,0,0,0-.49,1,.89.89,0,0,0,.12.42,1,1,0,0,0,1.36.36l.53-.3.27.23a3.93,3.93,0,0,0,1.27.73l.33.12V99a.94.94,0,0,0,.06.29A1,1,0,0,0,174.1,99v-.61l.34-.12a4.07,4.07,0,0,0,1.26-.73l.25-.21,0,0,.53.3a1,1,0,0,0,.76.1,1,1,0,0,0,.71-1.22A1,1,0,0,0,177.5,95.88Zm-3.2.8a2.56,2.56,0,0,1-1.2.32,2.5,2.5,0,0,1-2.5-2.5,2.56,2.56,0,0,1,.21-1,2.45,2.45,0,0,1,.89-1.07,2.49,2.49,0,0,1,1.4-.43,2.44,2.44,0,0,1,1.2.32,2.48,2.48,0,0,1,0,4.36Z"/><path class="cls-3" d="M115.47,97.75h0a2,2,0,0,1,.35-2.44c-.33.09-.66.18-1,.25V101h2.6V98.73A2,2,0,0,1,115.47,97.75Z"/><path class="cls-3" d="M107.15,94.52a14.56,14.56,0,0,0,8.95,0c0-.21,0-.42,0-.62a2,2,0,0,1-.92-1.76,10.69,10.69,0,0,1-7.95,1.94A.21.21,0,0,0,107.15,94.52Z"/><path class="cls-3" d="M117.27,90.26a1.88,1.88,0,0,1,.86.21,5.2,5.2,0,0,1,1-.56,2,2,0,0,1,3.92-.47,11,11,0,0,0,1.63-4.2H127l-2.55-2.12L121.9,81l-2.54,2.12-2.55,2.12h2.79A10.76,10.76,0,0,1,117.27,90.26Z"/><path class="cls-3" d="M124.07,90.47a2,2,0,0,1,1.19-.2v-4.4h-.06a11.78,11.78,0,0,1-1.82,4.18A4.89,4.89,0,0,1,124.07,90.47Z"/><path class="cls-3" d="M119.1,99.08l-.36-.18V101h2.61v0a1.9,1.9,0,0,1-.25,0A2,2,0,0,1,119.1,99.08Z"/><path class="cls-3" d="M107,101h2.61V95.72a14.53,14.53,0,0,1-2.61-.6Z"/><path class="cls-3" d="M123.1,99.08a2,2,0,0,1-.45,1.17V101h2.61V98.72a2,2,0,0,1-1.19-.2A4.9,4.9,0,0,1,123.1,99.08Z"/><path class="cls-3" d="M110.91,95.85V101h2.61V95.77a15.44,15.44,0,0,1-1.81.1Z"/><path class="cls-9" d="M125.5,93.11a1,1,0,0,0,.47-.61,1,1,0,0,0-.71-1.22h0a1,1,0,0,0-.76.1l-.53.3-.27-.23a4.1,4.1,0,0,0-.94-.58l-.32-.14-.3-.11h0V90a1,1,0,0,0-2,0v.61l-.33.11a4.15,4.15,0,0,0-1.27.74l-.27.23-.53-.31a1,1,0,0,0-1,1.73l.52.31-.06.35a3,3,0,0,0,0,.43,3.75,3.75,0,0,0,0,.67c0,.12,0,.24,0,.36l.06.35-.52.3a1,1,0,0,0-.37,1.37,1,1,0,0,0,1.09.45.78.78,0,0,0,.27-.09l.53-.3.27.23.24.17a4.12,4.12,0,0,0,1,.56l.33.12V99a.94.94,0,0,0,1.25,1,1,1,0,0,0,.75-1v-.61l.34-.12.21-.1a3.86,3.86,0,0,0,1-.63l.27-.23.53.3a1,1,0,0,0,.76.1h0a1,1,0,0,0,.71-1.22,1,1,0,0,0-.47-.61l-.24-.14-.29-.16.07-.35a4,4,0,0,0,0-1.47l-.07-.34.29-.17Zm-2.85,3.33a2.39,2.39,0,0,1-1.3.53,1.9,1.9,0,0,1-.25,0,2.5,2.5,0,0,1-2.36-1.72,2.36,2.36,0,0,1,.17-2A2.53,2.53,0,0,1,120.74,92c.12,0,.24,0,.36,0a2.52,2.52,0,0,1,2.5,2.5A2.45,2.45,0,0,1,122.65,96.44Z"/><path class="cls-3" d="M100.44,88.65l-.59-.34.08-.39a4.41,4.41,0,0,0,0-1.62l-.08-.39.59-.34a1.07,1.07,0,0,0,.52-.67,1.1,1.1,0,0,0-.79-1.36,1.08,1.08,0,0,0-.84.11l-.59.34-.3-.26a4.27,4.27,0,0,0-1.4-.81l-.38-.13v-.68a1.11,1.11,0,0,0-2.22,0v.68l-.37.13a4.57,4.57,0,0,0-1.29.73A2.24,2.24,0,0,1,92,86.49a5.14,5.14,0,0,1,0,1.24,2.27,2.27,0,0,1,.91,1.16,2.5,2.5,0,0,1,.24.9,5.85,5.85,0,0,1,1.08.63,2.21,2.21,0,0,1,2.94.84,4.47,4.47,0,0,0,1.3-.77l.3-.26.59.35a1.12,1.12,0,0,0,1.52-.41,1.1,1.1,0,0,0,.11-.85A1.12,1.12,0,0,0,100.44,88.65Zm-4.89,1.24a2.78,2.78,0,1,1,2.78-2.78A2.79,2.79,0,0,1,95.55,89.89Z"/><path class="cls-3" d="M87.59,90.42a5.85,5.85,0,0,1,1.08-.63,2.2,2.2,0,0,1,1-1.73,2.29,2.29,0,0,1,1-.37l.24,0a4.49,4.49,0,0,0,0-1.37l-.07-.39.25-.14.34-.2a1.05,1.05,0,0,0,.51-.67,1.1,1.1,0,0,0-.11-.85,1.05,1.05,0,0,0-.67-.51h0a1.12,1.12,0,0,0-.8.12l-.52.3-.06,0-.3-.26-.12-.08a4.57,4.57,0,0,0-1.29-.73l-.37-.13v-.68a1.12,1.12,0,0,0-2.23,0v.68l-.37.13a4.46,4.46,0,0,0-1.4.81l-.3.26-.59-.34a1.11,1.11,0,0,0-1.11,1.93l.58.33-.07.39a4.47,4.47,0,0,0,0,1.63l.07.38-.58.34a1.11,1.11,0,1,0,1.11,1.93l.59-.34.29.25a4.24,4.24,0,0,0,1.15.69A2.22,2.22,0,0,1,87.59,90.42Zm-3.92-3.31a2.78,2.78,0,1,1,2.78,2.78A2.78,2.78,0,0,1,83.67,87.11Z"/><path class="cls-9" d="M96.12,93.05a1,1,0,0,0,.18-.38,1.08,1.08,0,0,0-.11-.84,1.11,1.11,0,0,0-.68-.52,1.08,1.08,0,0,0-.84.11l-.23.14-.36.2-.29-.25a4.24,4.24,0,0,0-1.15-.69c-.09,0-.17-.09-.26-.12l-.27-.1-.1,0v-.68a1.09,1.09,0,0,0-.15-.52,1.1,1.1,0,0,0-1-.59,1.08,1.08,0,0,0-.56.17,1.12,1.12,0,0,0-.55.94v.67l-.37.14-.1,0a4.66,4.66,0,0,0-1.31.77l-.3.26-.14-.09-.44-.26a1.12,1.12,0,0,0-1.52.41,1.08,1.08,0,0,0-.12.8,1.12,1.12,0,0,0,.52.72l.59.34v.08l-.06.31a2.11,2.11,0,0,0,0,.25,4.49,4.49,0,0,0,0,1.37l.07.39-.59.34a1.11,1.11,0,1,0,1.12,1.92L87.7,98l.3.26a4.51,4.51,0,0,0,1.41.81l.37.13v.68a1.12,1.12,0,0,0,2.23,0v-.68l.37-.13a4.46,4.46,0,0,0,1.4-.81l.3-.26.59.34a1.12,1.12,0,0,0,1.52-.41,1.12,1.12,0,0,0-.41-1.52l-.58-.33.07-.39a4.63,4.63,0,0,0,0-1.39c0-.08,0-.16,0-.24l-.06-.33v0l.58-.34A1.1,1.1,0,0,0,96.12,93.05Zm-5.23,4.62a2.78,2.78,0,1,1,2.78-2.78A2.79,2.79,0,0,1,90.89,97.67Z"/><path class="cls-3" d="M36.5,91a5,5,0,1,0-5-5A5,5,0,0,0,36.5,91Zm0-8.33A3.33,3.33,0,1,1,33.17,86,3.33,3.33,0,0,1,36.5,82.67Z"/><path class="cls-3" d="M36.5,92.67a7.5,7.5,0,0,0-7.5,7.5.83.83,0,0,0,.83.83.84.84,0,0,0,.84-.83,5.84,5.84,0,0,1,5.83-5.84c.2,0,.41,0,.61,0a6.62,6.62,0,0,1,.5-1.6A6.74,6.74,0,0,0,36.5,92.67Z"/><path class="cls-9" d="M43.5,90a5.48,5.48,0,0,0-4.88,3,5.08,5.08,0,0,0-.53,1.58,4.83,4.83,0,0,0-.09.94A5.5,5.5,0,0,0,43.06,101h.44a5.5,5.5,0,0,0,0-11Zm3.11,4.4-3,3.08-.09,0a1.08,1.08,0,0,1-.73.29,1.14,1.14,0,0,1-.81-.34l-.88-.9-.7-.72a.67.67,0,0,1,0-.79.52.52,0,0,1,.39-.17.53.53,0,0,1,.4.17l1.58,1.62.24-.25,2.82-2.83a.56.56,0,0,1,.4-.17h0a.52.52,0,0,1,.39.17A.57.57,0,0,1,46.61,94.4Z"/><path class="cls-9" d="M19.18,93V90a3.46,3.46,0,0,1,1.18.74L22,92.36a3.3,3.3,0,0,1,.76,1.15H19.66a.47.47,0,0,1-.48-.47ZM23,94.67v4A2.37,2.37,0,0,1,20.61,101H15.84a2.37,2.37,0,0,1-2.39-2.34V92.11a2.38,2.38,0,0,1,2.39-2.35H18l.23,0V93a1.43,1.43,0,0,0,1.44,1.41H23c0,.07,0,.15,0,.22Zm-3.82,4a.47.47,0,0,0-.48-.47H16.31a.47.47,0,0,0,0,.94H18.7A.47.47,0,0,0,19.18,98.66Zm1.43-1.87a.47.47,0,0,0-.48-.47H16.31a.47.47,0,0,0-.47.47.46.46,0,0,0,.47.46h3.82A.46.46,0,0,0,20.61,96.79Z"/><path class="cls-3" d="M10.5,81a5,5,0,1,0,5,5A5,5,0,0,0,10.5,81Zm0,8.33A3.33,3.33,0,1,1,13.83,86,3.33,3.33,0,0,1,10.5,89.33Z"/><path class="cls-3" d="M10.5,92.67a7.5,7.5,0,0,0-7.5,7.5.83.83,0,0,0,.83.83.84.84,0,0,0,.84-.83,5.84,5.84,0,0,1,5.83-5.84,5.7,5.7,0,0,1,1.9.33V92.94A7.45,7.45,0,0,0,10.5,92.67Z"/><path class="cls-9" d="M64.13,95.06a6,6,0,0,1,0-1l-.87.81s0,0,0,0a.87.87,0,0,1-1.2-.07l-1.34-1.18a.85.85,0,0,0-1.2.07A.82.82,0,0,0,59.53,95l1.31,1.14a2.57,2.57,0,0,0,2.37.66A2,2,0,0,1,64.13,95.06Z"/><path class="cls-3" d="M71.05,99.42a3.77,3.77,0,0,0,.37-.52c-.11,0-.21.13-.32.18A1.27,1.27,0,0,1,71.05,99.42Z"/><path class="cls-3" d="M67.14,99.33H59.25a2.52,2.52,0,0,1-2.55-2.5V85.17a2.52,2.52,0,0,1,2.55-2.5h3.84a2.85,2.85,0,0,1,.41,0v4.12a2.52,2.52,0,0,0,2.55,2.5h1.18a2,2,0,0,1,3.87.58,5,5,0,0,1,.9.51v-.68a5.76,5.76,0,0,0-1.74-4.13l-3-2.9A6,6,0,0,0,63.09,81H59.25A4.21,4.21,0,0,0,55,85.17V96.83A4.21,4.21,0,0,0,59.25,101h8.5a4.58,4.58,0,0,0,.83-.08A2,2,0,0,1,67.14,99.33ZM65.2,83.24a3.57,3.57,0,0,1,.89.65l3,2.9a4.4,4.4,0,0,1,.66.88H66.05a.85.85,0,0,1-.85-.84Z"/><path class="cls-9" d="M73.5,95.88l-.53-.3.07-.35a4,4,0,0,0,0-1.47L73,93.42l.53-.31A1,1,0,0,0,74,92.5a1,1,0,0,0-.71-1.22,1,1,0,0,0-.76.1l-.5.29h0l-.27-.23a3.86,3.86,0,0,0-1.26-.72l-.14,0-.2-.07V90a1,1,0,0,0-.26-.67,1,1,0,0,0-1.47,0,1,1,0,0,0-.27.67v.61l-.33.11a4.15,4.15,0,0,0-1.27.74l-.27.23-.53-.31a1,1,0,0,0-1,1.73l.29.18.23.13-.06.35a4,4,0,0,0,0,1.46l0,.17,0,.18-.52.3a1,1,0,0,0-.37,1.37,1,1,0,0,0,1.36.36l.53-.3.27.23a3.93,3.93,0,0,0,1.27.73l.33.12V99a.94.94,0,0,0,.06.29A1,1,0,0,0,70.1,99v-.61l.34-.12a4.07,4.07,0,0,0,1.26-.73l.25-.21,0,0,.53.3a1,1,0,0,0,.76.1A1,1,0,0,0,74,96.49,1,1,0,0,0,73.5,95.88Zm-3.2.8a2.56,2.56,0,0,1-1.2.32,2.5,2.5,0,0,1-2.5-2.5,2.22,2.22,0,0,1,.05-.45,2.49,2.49,0,0,1,2.45-2,2.44,2.44,0,0,1,1.2.32,2.48,2.48,0,0,1,0,4.36Z"/><g id="Computer"><path class="cls-3" d="M225.07,85H214.7a3.67,3.67,0,0,0-3.7,3.64v5.81a3.67,3.67,0,0,0,3.7,3.64h4.45v1.46h-3a.74.74,0,0,0-.75.72.74.74,0,0,0,.75.73h7.4a.74.74,0,0,0,.74-.73.73.73,0,0,0-.74-.72h-3V98.09h4.44a3.68,3.68,0,0,0,3.71-3.64V88.64A3.68,3.68,0,0,0,225.07,85ZM214.7,86.45h10.37a2.21,2.21,0,0,1,2.23,2.19v5.09H212.48V88.64A2.21,2.21,0,0,1,214.7,86.45Zm10.37,10.19H214.7a2.23,2.23,0,0,1-2.08-1.46h14.54A2.23,2.23,0,0,1,225.07,96.64Z"/></g><path class="cls-9" d="M220.37,93A1.37,1.37,0,0,1,219,91.62a1.34,1.34,0,0,1,0-.2,7,7,0,0,1,1.19-3.19,2.52,2.52,0,0,1,3.56,3.57A7,7,0,0,1,220.58,93Zm10.18-11.57a1.58,1.58,0,0,0-2.16,0l-5.25,5.26a3.5,3.5,0,0,1,2.16,2.17l5.25-5.26a1.53,1.53,0,0,0,0-2.17Z"/><path class="cls-3" d="M247.82,82.5v1.75a2.12,2.12,0,0,0,1.29,2,2.09,2.09,0,0,0,.85.18,2.15,2.15,0,0,0,1.52-.64l.18-.18.17.17a2.14,2.14,0,0,0,1.53.65,2.22,2.22,0,0,0,.82-.16,2,2,0,0,0,.32-.17V95a.5.5,0,0,1-.5.5H241a2.53,2.53,0,0,0-1.5.5V83a.5.5,0,0,1,.5-.5h7.82M254,81h0v3.27a.65.65,0,0,1-.39.6.56.56,0,0,1-.25,0,.64.64,0,0,1-.45-.19l-1.25-1.28-1.25,1.28a.6.6,0,0,1-.45.19.56.56,0,0,1-.25,0,.65.65,0,0,1-.39-.6V81H240a2,2,0,0,0-2,2V99a2,2,0,0,0,2,2h14a2,2,0,0,0,2-2H241a1,1,0,0,1,0-2h13a2,2,0,0,0,2-2V83a2,2,0,0,0-2-2Z"/><g id="keyboard-arrow-right"><polygon class="cls-9" points="249.9 93.46 252.68 90.66 249.9 87.81 250.75 86.94 254.37 90.66 250.75 94.39 249.9 93.46"/></g><g id="keyboard-arrow-right-2" data-name="keyboard-arrow-right"><polygon class="cls-9" points="245.26 94.19 248.38 86.88 249.48 87.35 246.39 94.74 245.26 94.19"/></g><g id="keyboard-arrow-right-3" data-name="keyboard-arrow-right"><polygon class="cls-9" points="244.84 93.46 242.06 90.66 244.84 87.81 243.99 86.94 240.37 90.66 243.99 94.39 244.84 93.46"/></g><g id="E-learning"><path class="cls-3" d="M279.58,83.58a3.34,3.34,0,0,0-4-2.5l-.16,0-1.44.41a2.49,2.49,0,0,0-1,.54,2.49,2.49,0,0,0-1-.54l-1.44-.41a3.33,3.33,0,0,0-4.12,2.29s0,.1,0,.16A4.16,4.16,0,0,0,263,87.67V93.5a4.18,4.18,0,0,0,4.17,4.17h5v1.66h-2.5a.85.85,0,0,0-.84.84.84.84,0,0,0,.84.83h6.66a.84.84,0,0,0,.84-.83.85.85,0,0,0-.84-.84h-2.5V97.67h5A4.18,4.18,0,0,0,283,93.5V87.67A4.16,4.16,0,0,0,279.58,83.58Zm-5.75.36a.83.83,0,0,1,.61-.8l1.44-.41a1.68,1.68,0,0,1,2.06,1.14,1.82,1.82,0,0,1,.06.46v3.29a1.67,1.67,0,0,1-1.21,1.6l-3,.84ZM268.67,83a1.68,1.68,0,0,1,1.46-.27l1.43.41a.83.83,0,0,1,.61.8v6.12l-3-.84a1.67,1.67,0,0,1-1.21-1.6V84.33A1.66,1.66,0,0,1,268.67,83Zm12.66,10.5a2.5,2.5,0,0,1-2.5,2.5H267.17a2.5,2.5,0,0,1-2.5-2.5V87.67a2.49,2.49,0,0,1,1.66-2.35v2.3a3.35,3.35,0,0,0,2.42,3.2l2.88.82a5,5,0,0,0,2.75,0l2.87-.82a3.35,3.35,0,0,0,2.42-3.2v-2.3a2.49,2.49,0,0,1,1.66,2.35Z"/></g><circle class="cls-9" cx="273" cy="89" r="4"/><path class="cls-9" d="M273,94.33a6,6,0,0,0-6,6,.67.67,0,0,0,.67.67h10.66a.67.67,0,0,0,.67-.67A6,6,0,0,0,273,94.33Z"/><path class="cls-9" d="M148.83,114.67h-2.91a.83.83,0,0,0-.7.37l-.87,1.3-1.85-3.71a.82.82,0,0,0-.7-.46.83.83,0,0,0-.75.37l-1.41,2.13h-2.47a.83.83,0,1,0,0,1.66h2.91a.85.85,0,0,0,.7-.37l.87-1.3,1.85,3.71a.82.82,0,0,0,.7.46h.05a.85.85,0,0,0,.7-.37l1.41-2.13h2.47a.83.83,0,1,0,0-1.66Z"/><path class="cls-10" d="M148.83,108H137.17a4.13,4.13,0,0,0-4.17,4.09v6.55a4.14,4.14,0,0,0,4.17,4.09h5v1.63h-3.34a.82.82,0,1,0,0,1.64h8.34a.82.82,0,1,0,0-1.64h-3.34v-1.63h5a4.14,4.14,0,0,0,4.17-4.09v-6.55A4.13,4.13,0,0,0,148.83,108Zm2.5,10.83a2.5,2.5,0,0,1-2.5,2.5H137.17a2.5,2.5,0,0,1-2.5-2.5v-6.66a2.5,2.5,0,0,1,2.5-2.5h11.66a2.5,2.5,0,0,1,2.5,2.5Z"/><circle class="cls-9" cx="194.5" cy="112" r="5"/><path class="cls-10" d="M194.5,118.67a7.5,7.5,0,0,0-7.5,7.5.83.83,0,0,0,.83.83h13.34a.83.83,0,0,0,.83-.83A7.5,7.5,0,0,0,194.5,118.67Z"/><path class="cls-10" d="M167.26,117.83H164.1a.84.84,0,1,0,0,1.67h3.56A2,2,0,0,1,167.26,117.83Z"/><path class="cls-10" d="M168,121.17h-3.9a.83.83,0,1,0,0,1.66h3.12A2,2,0,0,1,168,121.17Z"/><path class="cls-10" d="M175.05,125.42a3.77,3.77,0,0,0,.37-.52c-.11,0-.21.13-.32.18A1.27,1.27,0,0,1,175.05,125.42Z"/><path class="cls-10" d="M171.14,125.33h-7.89a2.52,2.52,0,0,1-2.55-2.5V111.17a2.52,2.52,0,0,1,2.55-2.5h3.84a2.85,2.85,0,0,1,.41,0v4.12a2.52,2.52,0,0,0,2.55,2.5h1.18a2,2,0,0,1,3.87.58,5,5,0,0,1,.9.51v-.68a5.76,5.76,0,0,0-1.74-4.13l-3-2.9a6,6,0,0,0-4.21-1.71h-3.84a4.21,4.21,0,0,0-4.25,4.17v11.66a4.21,4.21,0,0,0,4.25,4.17h8.5a4.58,4.58,0,0,0,.83-.08A2,2,0,0,1,171.14,125.33Zm-1.94-16.09a3.57,3.57,0,0,1,.89.65l3,2.9a4.1,4.1,0,0,1,.67.88h-3.67a.85.85,0,0,1-.85-.84Z"/><path class="cls-9" d="M177.5,121.88l-.53-.3.07-.35a4,4,0,0,0,0-1.47l-.07-.34.53-.31a1,1,0,0,0,.47-.61,1,1,0,0,0-.71-1.22,1,1,0,0,0-.76.1l-.5.29h0l-.27-.23a3.86,3.86,0,0,0-1.26-.72l-.14,0-.2-.07V116a1,1,0,0,0-.26-.67,1,1,0,0,0-1.47,0,1,1,0,0,0-.27.67v.61l-.33.11a4.15,4.15,0,0,0-1.27.74l-.27.23-.53-.31a1,1,0,0,0-1.36.37s0,.06,0,.08a1,1,0,0,0,.4,1.28l.52.31v.08l-.05.27a4,4,0,0,0,0,1.46l.06.35-.12.07-.4.23a1,1,0,0,0-.49,1,.89.89,0,0,0,.12.42,1,1,0,0,0,1.36.36l.53-.3.27.23a3.93,3.93,0,0,0,1.27.73l.33.12V125a.94.94,0,0,0,.06.29,1,1,0,0,0,1.94-.29v-.61l.34-.12a4.07,4.07,0,0,0,1.26-.73l.25-.21,0,0,.53.3a1,1,0,0,0,.76.1,1,1,0,0,0,.71-1.22A1,1,0,0,0,177.5,121.88Zm-3.2.8a2.56,2.56,0,0,1-1.2.32,2.5,2.5,0,0,1-2.5-2.5,2.56,2.56,0,0,1,.21-1,2.45,2.45,0,0,1,.89-1.07,2.49,2.49,0,0,1,1.4-.43,2.44,2.44,0,0,1,1.2.32,2.48,2.48,0,0,1,0,4.36Z"/><path class="cls-10" d="M115.47,123.75h0a2,2,0,0,1,.35-2.44c-.33.09-.66.18-1,.25V127h2.6v-2.27A2,2,0,0,1,115.47,123.75Z"/><path class="cls-10" d="M107.15,120.52a14.56,14.56,0,0,0,8.95,0c0-.21,0-.42,0-.62a2,2,0,0,1-.92-1.76,10.69,10.69,0,0,1-7.95,1.94A.21.21,0,0,0,107.15,120.52Z"/><path class="cls-10" d="M117.27,116.26a1.88,1.88,0,0,1,.86.21,5.2,5.2,0,0,1,1-.56,2,2,0,0,1,3.92-.47,11,11,0,0,0,1.63-4.2H127l-2.55-2.12L121.9,107l-2.54,2.12-2.55,2.12h2.79A10.76,10.76,0,0,1,117.27,116.26Z"/><path class="cls-10" d="M124.07,116.47a2,2,0,0,1,1.19-.2v-4.4h-.06a11.78,11.78,0,0,1-1.82,4.18A4.89,4.89,0,0,1,124.07,116.47Z"/><path class="cls-10" d="M119.1,125.08l-.36-.18V127h2.61v0a1.9,1.9,0,0,1-.25,0A2,2,0,0,1,119.1,125.08Z"/><path class="cls-10" d="M107,127h2.61v-5.28a14.53,14.53,0,0,1-2.61-.6Z"/><path class="cls-10" d="M123.1,125.08a2,2,0,0,1-.45,1.17V127h2.61v-2.28a2,2,0,0,1-1.19-.2A4.9,4.9,0,0,1,123.1,125.08Z"/><path class="cls-10" d="M110.91,121.85V127h2.61v-5.23a15.44,15.44,0,0,1-1.81.1Z"/><path class="cls-9" d="M125.5,119.11a1,1,0,0,0,.47-.61,1,1,0,0,0-.71-1.22h0a1,1,0,0,0-.76.1l-.53.3-.27-.23a4.1,4.1,0,0,0-.94-.58l-.32-.14-.3-.11h0V116a1,1,0,0,0-2,0v.61l-.33.11a4.15,4.15,0,0,0-1.27.74l-.27.23-.53-.31a1,1,0,0,0-1,1.73l.52.31-.06.35a3,3,0,0,0,0,.43,3.75,3.75,0,0,0,0,.67c0,.12,0,.24,0,.36l.06.35-.52.3a1,1,0,0,0-.37,1.37,1,1,0,0,0,1.09.45.78.78,0,0,0,.27-.09l.53-.3.27.23.24.17a4.12,4.12,0,0,0,1,.56l.33.12V125a.94.94,0,0,0,1.25,1,1,1,0,0,0,.75-1v-.61l.34-.12.21-.1a3.86,3.86,0,0,0,1-.63l.27-.23.53.3a1,1,0,0,0,.76.1h0a1,1,0,0,0,.71-1.22,1,1,0,0,0-.47-.61l-.24-.14-.29-.16.07-.35a4,4,0,0,0,0-1.47l-.07-.34.29-.17Zm-2.85,3.33a2.39,2.39,0,0,1-1.3.53,1.9,1.9,0,0,1-.25,0,2.5,2.5,0,0,1-2.36-1.72,2.36,2.36,0,0,1,.17-2,2.53,2.53,0,0,1,1.83-1.28c.12,0,.24,0,.36,0a2.52,2.52,0,0,1,2.5,2.5A2.45,2.45,0,0,1,122.65,122.44Z"/><path class="cls-10" d="M100.44,114.65l-.59-.34.08-.39a4.41,4.41,0,0,0,0-1.62l-.08-.39.59-.34a1.07,1.07,0,0,0,.52-.67,1.1,1.1,0,0,0-.79-1.36,1.08,1.08,0,0,0-.84.11l-.59.34-.3-.26a4.27,4.27,0,0,0-1.4-.81l-.38-.13v-.68a1.11,1.11,0,0,0-2.22,0v.68l-.37.13a4.57,4.57,0,0,0-1.29.73,2.24,2.24,0,0,1-.81,2.84,5.14,5.14,0,0,1,0,1.24,2.27,2.27,0,0,1,.91,1.16,2.5,2.5,0,0,1,.24.9,5.85,5.85,0,0,1,1.08.63,2.21,2.21,0,0,1,2.94.84,4.47,4.47,0,0,0,1.3-.77l.3-.26.59.35a1.12,1.12,0,0,0,1.52-.41,1.1,1.1,0,0,0,.11-.85A1.12,1.12,0,0,0,100.44,114.65Zm-4.89,1.24a2.78,2.78,0,1,1,2.78-2.78A2.79,2.79,0,0,1,95.55,115.89Z"/><path class="cls-10" d="M87.59,116.42a5.85,5.85,0,0,1,1.08-.63,2.2,2.2,0,0,1,1-1.73,2.29,2.29,0,0,1,1-.37l.24,0a4.49,4.49,0,0,0,0-1.37l-.07-.39.25-.14.34-.2a1.05,1.05,0,0,0,.51-.67,1.1,1.1,0,0,0-.11-.85,1.05,1.05,0,0,0-.67-.51h0a1.12,1.12,0,0,0-.8.12l-.52.3-.06,0-.3-.26-.12-.08a4.57,4.57,0,0,0-1.29-.73l-.37-.13v-.68a1.12,1.12,0,0,0-2.23,0v.68l-.37.13a4.46,4.46,0,0,0-1.4.81l-.3.26-.59-.34a1.11,1.11,0,0,0-1.11,1.93l.58.33-.07.39a4.47,4.47,0,0,0,0,1.63l.07.38-.58.34a1.11,1.11,0,1,0,1.11,1.93l.59-.34.29.25a4.24,4.24,0,0,0,1.15.69A2.22,2.22,0,0,1,87.59,116.42Zm-3.92-3.31a2.78,2.78,0,1,1,2.78,2.78A2.78,2.78,0,0,1,83.67,113.11Z"/><path class="cls-9" d="M96.12,119.05a1,1,0,0,0,.18-.38,1.08,1.08,0,0,0-.11-.84,1.11,1.11,0,0,0-.68-.52,1.08,1.08,0,0,0-.84.11l-.23.14-.36.2-.29-.25a4.24,4.24,0,0,0-1.15-.69c-.09,0-.17-.09-.26-.12l-.27-.1-.1,0v-.68a1.09,1.09,0,0,0-.15-.52,1.1,1.1,0,0,0-1-.59,1.08,1.08,0,0,0-.56.17,1.12,1.12,0,0,0-.55.94v.67l-.37.14-.1,0a4.66,4.66,0,0,0-1.31.77l-.3.26-.14-.09-.44-.26a1.12,1.12,0,0,0-1.52.41,1.08,1.08,0,0,0-.12.8,1.12,1.12,0,0,0,.52.72l.59.34v.08l-.06.31a2.11,2.11,0,0,0,0,.25,4.49,4.49,0,0,0,0,1.37l.07.39-.59.34a1.11,1.11,0,1,0,1.12,1.92l.58-.34.3.26a4.51,4.51,0,0,0,1.41.81l.37.13v.68a1.12,1.12,0,0,0,2.23,0v-.68l.37-.13a4.46,4.46,0,0,0,1.4-.81l.3-.26.59.34a1.12,1.12,0,0,0,1.52-.41,1.12,1.12,0,0,0-.41-1.52l-.58-.33.07-.39a4.63,4.63,0,0,0,0-1.39c0-.08,0-.16,0-.24l-.06-.33v0l.58-.34A1.1,1.1,0,0,0,96.12,119.05Zm-5.23,4.62a2.78,2.78,0,1,1,2.78-2.78A2.79,2.79,0,0,1,90.89,123.67Z"/><path class="cls-10" d="M36.5,117a5,5,0,1,0-5-5A5,5,0,0,0,36.5,117Zm0-8.33A3.33,3.33,0,1,1,33.17,112,3.33,3.33,0,0,1,36.5,108.67Z"/><path class="cls-10" d="M36.5,118.67a7.5,7.5,0,0,0-7.5,7.5.83.83,0,0,0,.83.83.84.84,0,0,0,.84-.83,5.84,5.84,0,0,1,5.83-5.84c.2,0,.41,0,.61,0a6.62,6.62,0,0,1,.5-1.6A6.74,6.74,0,0,0,36.5,118.67Z"/><path class="cls-9" d="M43.5,116a5.48,5.48,0,0,0-4.88,3,5.08,5.08,0,0,0-.53,1.58,4.83,4.83,0,0,0-.09.94A5.5,5.5,0,0,0,43.06,127h.44a5.5,5.5,0,0,0,0-11Zm3.11,4.4-3,3.08-.09,0a1.08,1.08,0,0,1-.73.29,1.14,1.14,0,0,1-.81-.34l-.88-.9-.7-.72a.67.67,0,0,1,0-.79.52.52,0,0,1,.39-.17.53.53,0,0,1,.4.17l1.58,1.62.24-.25,2.82-2.83a.56.56,0,0,1,.4-.17h0a.52.52,0,0,1,.39.17A.57.57,0,0,1,46.61,120.4Z"/><path class="cls-9" d="M19.18,119V116a3.46,3.46,0,0,1,1.18.74L22,118.36a3.3,3.3,0,0,1,.76,1.15H19.66a.47.47,0,0,1-.48-.47ZM23,120.67v4A2.37,2.37,0,0,1,20.61,127H15.84a2.37,2.37,0,0,1-2.39-2.34v-6.55a2.38,2.38,0,0,1,2.39-2.35H18l.23,0V119a1.43,1.43,0,0,0,1.44,1.41H23c0,.07,0,.15,0,.22Zm-3.82,4a.47.47,0,0,0-.48-.47H16.31a.47.47,0,0,0,0,.94H18.7A.47.47,0,0,0,19.18,124.66Zm1.43-1.87a.47.47,0,0,0-.48-.47H16.31a.47.47,0,0,0-.47.47.46.46,0,0,0,.47.46h3.82A.46.46,0,0,0,20.61,122.79Z"/><path class="cls-10" d="M10.5,107a5,5,0,1,0,5,5A5,5,0,0,0,10.5,107Zm0,8.33A3.33,3.33,0,1,1,13.83,112,3.33,3.33,0,0,1,10.5,115.33Z"/><path class="cls-10" d="M10.5,118.67a7.5,7.5,0,0,0-7.5,7.5.83.83,0,0,0,.83.83.84.84,0,0,0,.84-.83,5.84,5.84,0,0,1,5.83-5.84,5.7,5.7,0,0,1,1.9.33v-1.72A7.45,7.45,0,0,0,10.5,118.67Z"/><path class="cls-9" d="M64.13,121.06a6,6,0,0,1,0-1l-.87.81s0,0,0,0a.87.87,0,0,1-1.2-.07l-1.34-1.18a.85.85,0,0,0-1.2.07.82.82,0,0,0,.06,1.18l1.31,1.14a2.57,2.57,0,0,0,2.37.66A2,2,0,0,1,64.13,121.06Z"/><path class="cls-6" d="M71.05,125.42a3.77,3.77,0,0,0,.37-.52c-.11,0-.21.13-.32.18A1.27,1.27,0,0,1,71.05,125.42Z"/><path class="cls-10" d="M67.14,125.33H59.25a2.52,2.52,0,0,1-2.55-2.5V111.17a2.52,2.52,0,0,1,2.55-2.5h3.84a2.85,2.85,0,0,1,.41,0v4.12a2.52,2.52,0,0,0,2.55,2.5h1.18a2,2,0,0,1,3.87.58,5,5,0,0,1,.9.51v-.68a5.76,5.76,0,0,0-1.74-4.13l-3-2.9a6,6,0,0,0-4.2-1.71H59.25A4.21,4.21,0,0,0,55,111.17v11.66A4.21,4.21,0,0,0,59.25,127h8.5a4.58,4.58,0,0,0,.83-.08A2,2,0,0,1,67.14,125.33ZM65.2,109.24a3.57,3.57,0,0,1,.89.65l3,2.9a4.4,4.4,0,0,1,.66.88H66.05a.85.85,0,0,1-.85-.84Z"/><path class="cls-9" d="M73.5,121.88l-.53-.3.07-.35a4,4,0,0,0,0-1.47l-.07-.34.53-.31a1,1,0,0,0,.47-.61,1,1,0,0,0-.71-1.22,1,1,0,0,0-.76.1l-.5.29h0l-.27-.23a3.86,3.86,0,0,0-1.26-.72l-.14,0-.2-.07V116a1,1,0,0,0-.26-.67,1,1,0,0,0-1.47,0,1,1,0,0,0-.27.67v.61l-.33.11a4.15,4.15,0,0,0-1.27.74l-.27.23-.53-.31a1,1,0,0,0-1,1.73l.29.18.23.13-.06.35a4,4,0,0,0,0,1.46l0,.17,0,.18-.52.3a1,1,0,0,0-.37,1.37,1,1,0,0,0,1.36.36l.53-.3.27.23a3.93,3.93,0,0,0,1.27.73l.33.12V125a.94.94,0,0,0,.06.29A1,1,0,0,0,70.1,125v-.61l.34-.12a4.07,4.07,0,0,0,1.26-.73l.25-.21,0,0,.53.3a1,1,0,0,0,.76.1,1,1,0,0,0,.71-1.22A1,1,0,0,0,73.5,121.88Zm-3.2.8a2.56,2.56,0,0,1-1.2.32,2.5,2.5,0,0,1-2.5-2.5,2.22,2.22,0,0,1,.05-.45,2.49,2.49,0,0,1,2.45-2,2.44,2.44,0,0,1,1.2.32,2.48,2.48,0,0,1,0,4.36Z"/><g id="Computer-2" data-name="Computer"><path class="cls-10" d="M225.07,111H214.7a3.67,3.67,0,0,0-3.7,3.64v5.81a3.67,3.67,0,0,0,3.7,3.64h4.45v1.46h-3a.74.74,0,0,0-.75.72.74.74,0,0,0,.75.73h7.4a.74.74,0,0,0,.74-.73.73.73,0,0,0-.74-.72h-3v-1.46h4.44a3.68,3.68,0,0,0,3.71-3.64v-5.81A3.68,3.68,0,0,0,225.07,111Zm-10.37,1.45h10.37a2.21,2.21,0,0,1,2.23,2.19v5.09H212.48v-5.09A2.21,2.21,0,0,1,214.7,112.45Zm10.37,10.19H214.7a2.23,2.23,0,0,1-2.08-1.46h14.54A2.23,2.23,0,0,1,225.07,122.64Z"/></g><path class="cls-9" d="M220.37,119a1.37,1.37,0,0,1-1.37-1.38,1.34,1.34,0,0,1,0-.2,7,7,0,0,1,1.19-3.19,2.52,2.52,0,0,1,3.56,3.57,7,7,0,0,1-3.18,1.19Zm10.18-11.57a1.58,1.58,0,0,0-2.16,0l-5.25,5.26a3.5,3.5,0,0,1,2.16,2.17l5.25-5.26a1.53,1.53,0,0,0,0-2.17Z"/><path class="cls-10" d="M247.82,108.5v1.75a2.12,2.12,0,0,0,1.29,2,2.09,2.09,0,0,0,.85.18,2.15,2.15,0,0,0,1.52-.64l.18-.18.17.17a2.14,2.14,0,0,0,1.53.65,2.22,2.22,0,0,0,.82-.16,2,2,0,0,0,.32-.17V121a.5.5,0,0,1-.5.5H241a2.53,2.53,0,0,0-1.5.5V109a.5.5,0,0,1,.5-.5h7.82M254,107h0v3.27a.65.65,0,0,1-.39.6.56.56,0,0,1-.25,0,.64.64,0,0,1-.45-.19l-1.25-1.28-1.25,1.28a.6.6,0,0,1-.45.19.56.56,0,0,1-.25,0,.65.65,0,0,1-.39-.6V107H240a2,2,0,0,0-2,2v16a2,2,0,0,0,2,2h14a2,2,0,0,0,2-2H241a1,1,0,0,1,0-2h13a2,2,0,0,0,2-2V109a2,2,0,0,0-2-2Z"/><g id="keyboard-arrow-right-4" data-name="keyboard-arrow-right"><polygon class="cls-9" points="249.9 119.46 252.68 116.66 249.9 113.81 250.75 112.94 254.37 116.66 250.75 120.39 249.9 119.46"/></g><g id="keyboard-arrow-right-5" data-name="keyboard-arrow-right"><polygon class="cls-9" points="245.26 120.19 248.38 112.88 249.48 113.35 246.39 120.74 245.26 120.19"/></g><g id="keyboard-arrow-right-6" data-name="keyboard-arrow-right"><polygon class="cls-9" points="244.84 119.46 242.06 116.66 244.84 113.81 243.99 112.94 240.37 116.66 243.99 120.39 244.84 119.46"/></g><g id="E-learning-2" data-name="E-learning"><path class="cls-10" d="M279.58,109.58a3.34,3.34,0,0,0-4-2.5l-.16,0-1.44.41a2.49,2.49,0,0,0-1,.54,2.49,2.49,0,0,0-1-.54l-1.44-.41a3.33,3.33,0,0,0-4.12,2.29s0,.1,0,.16a4.16,4.16,0,0,0-3.42,4.09v5.83a4.18,4.18,0,0,0,4.17,4.17h5v1.66h-2.5a.85.85,0,0,0-.84.84.84.84,0,0,0,.84.83h6.66a.84.84,0,0,0,.84-.83.85.85,0,0,0-.84-.84h-2.5v-1.66h5A4.18,4.18,0,0,0,283,119.5v-5.83A4.16,4.16,0,0,0,279.58,109.58Zm-5.75.36a.83.83,0,0,1,.61-.8l1.44-.41a1.68,1.68,0,0,1,2.06,1.14,1.82,1.82,0,0,1,.06.46v3.29a1.67,1.67,0,0,1-1.21,1.6l-3,.84Zm-5.16-.94a1.68,1.68,0,0,1,1.46-.27l1.43.41a.83.83,0,0,1,.61.8v6.12l-3-.84a1.67,1.67,0,0,1-1.21-1.6v-3.29A1.66,1.66,0,0,1,268.67,109Zm12.66,10.5a2.5,2.5,0,0,1-2.5,2.5H267.17a2.5,2.5,0,0,1-2.5-2.5v-5.83a2.49,2.49,0,0,1,1.66-2.35v2.3a3.35,3.35,0,0,0,2.42,3.2l2.88.82a5,5,0,0,0,2.75,0l2.87-.82a3.35,3.35,0,0,0,2.42-3.2v-2.3a2.49,2.49,0,0,1,1.66,2.35Z"/></g><circle class="cls-9" cx="273" cy="115" r="4"/><path class="cls-9" d="M273,120.33a6,6,0,0,0-6,6,.67.67,0,0,0,.67.67h10.66a.67.67,0,0,0,.67-.67A6,6,0,0,0,273,120.33Z"/><ellipse class="cls-9" cx="292" cy="94.92" rx="2" ry="2.03"/><path class="cls-9" d="M292,97.62a3,3,0,0,0-3,3,.34.34,0,0,0,.33.34h5.34a.34.34,0,0,0,.33-.34A3,3,0,0,0,292,97.62Z"/><ellipse class="cls-9" cx="306" cy="94.92" rx="2" ry="2.03"/><path class="cls-9" d="M306,97.62a3,3,0,0,0-3,3,.34.34,0,0,0,.33.34h5.34a.34.34,0,0,0,.33-.34A3,3,0,0,0,306,97.62Z"/><ellipse class="cls-9" cx="299" cy="83.03" rx="2" ry="2.03"/><path class="cls-9" d="M299,85.73a3,3,0,0,0-3,3,.34.34,0,0,0,.33.34h5.34a.34.34,0,0,0,.33-.34A3,3,0,0,0,299,85.73Z"/><polygon class="cls-3" points="302.84 97.55 299.75 94.42 299.75 90.2 298.25 90.2 298.25 94.42 295.16 97.55 296.22 98.62 299 95.81 301.78 98.62 302.84 97.55"/><ellipse class="cls-9" cx="292" cy="120.92" rx="2" ry="2.03"/><path class="cls-9" d="M292,123.62a3,3,0,0,0-3,3,.34.34,0,0,0,.33.34h5.34a.34.34,0,0,0,.33-.34A3,3,0,0,0,292,123.62Z"/><ellipse class="cls-9" cx="306" cy="120.92" rx="2" ry="2.03"/><path class="cls-9" d="M306,123.62a3,3,0,0,0-3,3,.34.34,0,0,0,.33.34h5.34a.34.34,0,0,0,.33-.34A3,3,0,0,0,306,123.62Z"/><ellipse class="cls-9" cx="299" cy="109.03" rx="2" ry="2.03"/><path class="cls-9" d="M299,111.73a3,3,0,0,0-3,3,.34.34,0,0,0,.33.34h5.34a.34.34,0,0,0,.33-.34A3,3,0,0,0,299,111.73Z"/><polygon class="cls-10" points="302.84 123.55 299.75 120.42 299.75 116.2 298.25 116.2 298.25 120.42 295.16 123.55 296.22 124.62 299 121.81 301.78 124.62 302.84 123.55"/><path d="M30,390H29a.5.5,0,0,0,0,1h1a.5.5,0,0,0,0-1Zm-4,0H25a.5.5,0,0,0,0,1h1a.5.5,0,0,0,0-1Zm-4,0H21a.5.5,0,0,0,0,1h1a.5.5,0,0,0,0-1Zm-4,0H17a.5.5,0,0,0,0,1h1a.5.5,0,0,0,0-1Zm-3.55.53a.5.5,0,0,0-.3.11l-.23.2h-.26a1.44,1.44,0,0,0-.18.25.49.49,0,0,0,.15.69.5.5,0,0,0,.69-.15,2.06,2.06,0,0,1,.44-.49.5.5,0,0,0,.09-.7.51.51,0,0,0-.4-.2Zm-.95,3.26a.5.5,0,0,0-.5.5v1a.5.5,0,0,0,1,0v-1a.5.5,0,0,0-.5-.5Zm0,4a.5.5,0,0,0-.5.5v1a.5.5,0,0,0,1,0v-1a.5.5,0,0,0-.5-.5Zm0,4a.5.5,0,0,0-.5.5v1a.5.5,0,0,0,1,0v-1a.5.5,0,0,0-.5-.5Zm0,4a.5.5,0,0,0-.5.5V407h0a1,1,0,0,0,0,.17h0v0a.51.51,0,0,0,.5.45h.05a.5.5,0,0,0,.45-.55,1.21,1.21,0,0,1,0-.19v-.71a.5.5,0,0,0-.5-.5Zm1.36,2.93a.5.5,0,0,0-.23.95l.1.05H15a3,3,0,0,0,.61.15h.07a.5.5,0,0,0,.07-1,1.94,1.94,0,0,1-.63-.2.53.53,0,0,0-.23-.06Zm4.71.28h-1a.5.5,0,1,0,0,1h1a.5.5,0,0,0,0-1Zm4,0h-1a.5.5,0,1,0,0,1h1a.5.5,0,0,0,0-1Zm4,0h-1a.5.5,0,1,0,0,1h1a.5.5,0,0,0,0-1Zm3.68-.34a.59.59,0,0,0-.25.07,1.93,1.93,0,0,1-.62.23.5.5,0,0,0-.39.59.49.49,0,0,0,.49.4h.09l.18-.05h.19a2.76,2.76,0,0,0,.47-.2h.09a.51.51,0,0,0,.18-.69.5.5,0,0,0-.43-.25Zm1.25-3a.5.5,0,0,0-.5.5v.95a.52.52,0,0,0,.49.53h0a.49.49,0,0,0,.49-.45v-.09h0v-.86a.5.5,0,0,0-.5-.5Zm0-4a.5.5,0,0,0-.5.5v1a.5.5,0,0,0,1,0v-1a.5.5,0,0,0-.5-.5Zm0-4a.5.5,0,0,0-.5.5v1a.5.5,0,0,0,1,0v-1a.5.5,0,0,0-.5-.5Zm0-4a.5.5,0,0,0-.5.5v1a.5.5,0,0,0,1,0v-1a.5.5,0,0,0-.5-.5Zm-1.05-3.18a.5.5,0,0,0-.29.91,2.1,2.1,0,0,1,.47.47.52.52,0,0,0,.41.21.46.46,0,0,0,.29-.1.5.5,0,0,0,.11-.69l0,0h0v0h0a3.19,3.19,0,0,0-.44-.46h-.06l-.14-.11a.52.52,0,0,0-.29-.09Z"/><rect class="cls-3" x="3.5" y="400.5" width="19" height="19" rx="2.5"/><path d="M20,401a2,2,0,0,1,2,2v14a2,2,0,0,1-2,2H6a2,2,0,0,1-2-2V403a2,2,0,0,1,2-2H20m0-1H6a3,3,0,0,0-3,3v14a3,3,0,0,0,3,3H20a3,3,0,0,0,3-3V403a3,3,0,0,0-3-3Z"/><path d="M69,390H68a.5.5,0,0,0,0,1h1v-1Zm-4,0H64a.5.5,0,0,0,0,1h1a.5.5,0,0,0,0-1Zm-4,0H60a.5.5,0,0,0,0,1h1a.5.5,0,0,0,0-1Zm-4,0H56a.5.5,0,0,0,0,1h1a.5.5,0,0,0,0-1Zm-4,0H52a.5.5,0,0,0,0,1h1a.5.5,0,0,0,0-1Zm-3,0H49v1a.5.5,0,0,0,1,0v-1Zm-.5,3.5a.5.5,0,0,0-.5.5v1a.5.5,0,0,0,1,0v-1a.5.5,0,0,0-.5-.5Zm0,4a.5.5,0,0,0-.5.5v1a.5.5,0,0,0,1,0v-1a.5.5,0,0,0-.5-.5Zm0,4a.5.5,0,0,0-.5.5v1a.5.5,0,0,0,1,0v-1a.5.5,0,0,0-.5-.5Zm0,4a.5.5,0,0,0-.5.5v1a.5.5,0,0,0,1,0v-1a.5.5,0,0,0-.5-.5ZM50,409H49v1h1a.5.5,0,0,0,0-1Zm4,0H53a.5.5,0,0,0,0,1h1a.5.5,0,0,0,0-1Zm4,0H57a.5.5,0,0,0,0,1h1a.5.5,0,0,0,0-1Zm4,0H61a.5.5,0,0,0,0,1h1a.5.5,0,0,0,0-1Zm4,0H65a.5.5,0,0,0,0,1h1a.5.5,0,0,0,0-1Zm2.5-.5a.5.5,0,0,0-.5.5v1h1v-1a.5.5,0,0,0-.5-.5Zm0-4a.5.5,0,0,0-.5.5v1a.5.5,0,0,0,1,0v-1a.5.5,0,0,0-.5-.5Zm0-4a.5.5,0,0,0-.5.5v1a.5.5,0,0,0,1,0v-1a.5.5,0,0,0-.5-.5Zm0-4a.5.5,0,0,0-.5.5v1a.5.5,0,0,0,1,0v-1a.5.5,0,0,0-.5-.5Zm0-4a.5.5,0,0,0-.5.5v1a.5.5,0,0,0,1,0v-1a.5.5,0,0,0-.5-.5Z"/><rect class="cls-3" x="39.5" y="400.5" width="19" height="19"/><path d="M58,401v18H40V401H58m1-1H39v20H59V400Z"/><path class="cls-3" d="M13.71,424.41a1.38,1.38,0,0,1-.41-1L12.47,412a1.31,1.31,0,0,1,1.34-1.35h0l11.47.83a1.4,1.4,0,0,1,1.39,1.37,1.34,1.34,0,0,1-.39,1l-2.56,2.56,4.3,4.31a1.23,1.23,0,0,1,0,1.74l-3.77,3.77a1.23,1.23,0,0,1-1.74,0l-4.31-4.3-2.57,2.56A1.35,1.35,0,0,1,13.71,424.41Z"/><path d="M28.45,422.83l-3.77,3.77a1.84,1.84,0,0,1-2.61,0l-3.88-3.87-2.12,2.13a2,2,0,0,1-2.81,0h0a2,2,0,0,1-.58-1.39L11.85,412a1.92,1.92,0,0,1,.57-1.41h0a2,2,0,0,1,1.4-.57h.07l11.42.83a2,2,0,0,1,2,2,2,2,0,0,1-.56,1.42l-2.13,2.12,3.87,3.88A1.85,1.85,0,0,1,28.45,422.83Zm-10.68-1.38.44-.44L23,425.74a.62.62,0,0,0,.87,0L27.58,422a.61.61,0,0,0,0-.87l-4.73-4.74,3-3a.67.67,0,0,0,.2-.51.8.8,0,0,0-.78-.78l-11.53-.83a.66.66,0,0,0-.46.21h0a.71.71,0,0,0-.2.51l.83,11.47a.84.84,0,0,0,.24.56h0a.76.76,0,0,0,1.06,0Z"/><path d="M105,390h-1a.5.5,0,0,0,0,1h1a.5.5,0,0,0,0-1Zm-4,0h-1a.5.5,0,0,0,0,1h1a.5.5,0,0,0,0-1Zm-4,0H96a.5.5,0,0,0,0,1h1a.5.5,0,0,0,0-1Zm-4,0H92a.5.5,0,0,0,0,1h1a.5.5,0,0,0,0-1Zm-3.55.53a.5.5,0,0,0-.3.11l-.23.2h-.26a1.44,1.44,0,0,0-.18.25.49.49,0,0,0,.15.69.5.5,0,0,0,.69-.15,2.06,2.06,0,0,1,.44-.49.5.5,0,0,0,.09-.7.51.51,0,0,0-.4-.2Zm-1,3.26a.5.5,0,0,0-.5.5v1a.5.5,0,0,0,1,0v-1a.5.5,0,0,0-.5-.5Zm0,4a.5.5,0,0,0-.5.5v1a.5.5,0,0,0,1,0v-1a.5.5,0,0,0-.5-.5Zm0,4a.5.5,0,0,0-.5.5v1a.5.5,0,0,0,1,0v-1a.5.5,0,0,0-.5-.5Zm0,4a.5.5,0,0,0-.5.5V407h0a1,1,0,0,0,0,.17h0v0a.51.51,0,0,0,.5.45h0a.5.5,0,0,0,.45-.55,1.21,1.21,0,0,1,0-.19v-.71a.5.5,0,0,0-.5-.5Zm1.36,2.93a.5.5,0,0,0-.23.95l.1.05H90a3,3,0,0,0,.61.15h.07a.5.5,0,0,0,.07-1,1.94,1.94,0,0,1-.63-.2.53.53,0,0,0-.23-.06Zm4.71.28h-1a.5.5,0,0,0,0,1h1a.5.5,0,0,0,0-1Zm4,0h-1a.5.5,0,0,0,0,1h1a.5.5,0,0,0,0-1Zm4,0h-1a.5.5,0,0,0,0,1h1a.5.5,0,0,0,0-1Zm3.68-.34a.59.59,0,0,0-.25.07,1.93,1.93,0,0,1-.62.23.5.5,0,0,0-.39.59.49.49,0,0,0,.49.4h.09l.18-.05h.19a2.76,2.76,0,0,0,.47-.2h.09a.51.51,0,0,0,.18-.69.5.5,0,0,0-.43-.25Zm1.25-3a.5.5,0,0,0-.5.5v.95a.52.52,0,0,0,.49.53h0a.49.49,0,0,0,.49-.45v-.09h0v-.86a.5.5,0,0,0-.5-.5Zm0-4a.5.5,0,0,0-.5.5v1a.5.5,0,0,0,1,0v-1a.5.5,0,0,0-.5-.5Zm0-4a.5.5,0,0,0-.5.5v1a.5.5,0,0,0,1,0v-1a.5.5,0,0,0-.5-.5Zm0-4a.5.5,0,0,0-.5.5v1a.5.5,0,0,0,1,0v-1a.5.5,0,0,0-.5-.5Zm-1-3.18a.5.5,0,0,0-.29.91,2.1,2.1,0,0,1,.47.47.52.52,0,0,0,.41.21.46.46,0,0,0,.29-.1.5.5,0,0,0,.11-.69l0,0h0v0h0a3.19,3.19,0,0,0-.44-.46h-.06l-.14-.11a.52.52,0,0,0-.29-.09Z"/><rect class="cls-3" x="75.5" y="400.5" width="19" height="19" rx="2.5"/><path d="M92,401a2,2,0,0,1,2,2v14a2,2,0,0,1-2,2H78a2,2,0,0,1-2-2V403a2,2,0,0,1,2-2H92m0-1H78a3,3,0,0,0-3,3v14a3,3,0,0,0,3,3H92a3,3,0,0,0,3-3V403a3,3,0,0,0-3-3Z"/><path class="cls-3" d="M85.71,424.41a1.38,1.38,0,0,1-.41-1L84.47,412a1.31,1.31,0,0,1,1.34-1.35h0l11.47.83a1.4,1.4,0,0,1,1.39,1.37,1.34,1.34,0,0,1-.39,1l-2.56,2.56,4.3,4.31a1.23,1.23,0,0,1,0,1.74l-3.77,3.77a1.23,1.23,0,0,1-1.74,0l-4.31-4.3-2.57,2.56A1.35,1.35,0,0,1,85.71,424.41Z"/><path d="M100.45,422.83l-3.77,3.77a1.84,1.84,0,0,1-2.61,0l-3.88-3.87-2.12,2.13a2,2,0,0,1-2.81,0h0a2,2,0,0,1-.58-1.39L83.85,412a1.92,1.92,0,0,1,.57-1.41h0a2,2,0,0,1,1.4-.57h.07l11.42.83a2,2,0,0,1,2,2,2,2,0,0,1-.56,1.42l-2.13,2.12,3.87,3.88A1.85,1.85,0,0,1,100.45,422.83Zm-10.68-1.38.44-.44L95,425.74a.62.62,0,0,0,.87,0L99.58,422a.61.61,0,0,0,0-.87l-4.73-4.74,3-3a.67.67,0,0,0,.2-.51.8.8,0,0,0-.78-.78l-11.53-.83a.66.66,0,0,0-.46.21h0a.71.71,0,0,0-.2.51l.83,11.47a.84.84,0,0,0,.24.56h0a.76.76,0,0,0,1.06,0Z"/><path d="M138,390h-1.22a.61.61,0,1,0,0,1.22H138a.5.5,0,0,0,.17,0,.38.38,0,0,0,.15.05,2,2,0,0,1,.67.27.6.6,0,0,0,.34.11.63.63,0,0,0,.51-.27.61.61,0,0,0-.17-.85l-.13-.09h-.13a3.2,3.2,0,0,0-.87-.3h-.11l-.16,0A.6.6,0,0,0,138,390Zm-4.9,0h-1.22a.61.61,0,1,0,0,1.22h1.22a.61.61,0,1,0,0-1.22Zm-4.9,0H127a.61.61,0,1,0,0,1.22h1.22a.61.61,0,0,0,0-1.22Zm-4.9,0h-1.22a.61.61,0,1,0,0,1.22h1.22a.61.61,0,1,0,0-1.22Zm-4.9,0h-1.22a.61.61,0,0,0,0,1.22h1.22a.61.61,0,1,0,0-1.22Zm-4.79,0h-.1a2.94,2.94,0,0,0-.92.31h-.11l-.11.07a.62.62,0,0,0-.18.85.63.63,0,0,0,.52.28.67.67,0,0,0,.33-.1,1.77,1.77,0,0,1,.67-.26.61.61,0,0,0-.1-1.22Zm-2,3a.61.61,0,0,0-.61.61v1.23a.61.61,0,0,0,1.22,0v-1.23a.61.61,0,0,0-.61-.61Zm0,4.9a.61.61,0,0,0-.61.61v1.22a.61.61,0,1,0,1.22,0v-1.22a.61.61,0,0,0-.61-.61Zm0,4.9a.61.61,0,0,0-.61.61v1.22a.61.61,0,1,0,1.22,0v-1.22a.61.61,0,0,0-.61-.61Zm.25,4.58a.63.63,0,0,0-.27.06.61.61,0,0,0-.28.82s0,.05,0,.08h0v0h.11l0,0h0l0,0h0l0,.06h0a2.82,2.82,0,0,0,.33.36h0l0,0h.09a.61.61,0,0,0,.4.14.6.6,0,0,0,.46-.21.62.62,0,0,0-.07-.87,1.85,1.85,0,0,1-.44-.56.61.61,0,0,0-.55-.34Zm4.93,1.33h-1.23a.61.61,0,1,0,0,1.22h1.23a.61.61,0,0,0,0-1.22Zm4.9,0h-1.23a.61.61,0,1,0,0,1.22h1.23a.61.61,0,0,0,0-1.22Zm4.9,0h-1.23a.61.61,0,1,0,0,1.22h1.23a.61.61,0,0,0,0-1.22Zm4.9,0h-1.23a.61.61,0,1,0,0,1.22h1.23a.61.61,0,0,0,0-1.22Zm4.89,0h-1.22a.61.61,0,1,0,0,1.22h1.22a.61.61,0,1,0,0-1.22Zm3.74-1.3a.61.61,0,0,0-.54.33,1.67,1.67,0,0,1-.46.56.62.62,0,0,0-.08.87.63.63,0,0,0,.47.22.62.62,0,0,0,.39-.14,3,3,0,0,0,.77-.94.63.63,0,0,0-.27-.83.55.55,0,0,0-.28-.07Zm.27-4.56a.61.61,0,0,0-.61.61v1.23a.61.61,0,0,0,1.22,0v-1.23a.61.61,0,0,0-.61-.61Zm0-4.9a.61.61,0,0,0-.61.61v1.23a.61.61,0,0,0,1.22,0v-1.23a.61.61,0,0,0-.61-.61Zm0-4.9a.61.61,0,0,0-.61.61V395a.61.61,0,0,0,1.22,0v-1.23a.61.61,0,0,0-.61-.61Z"/><rect class="cls-3" x="115.61" y="394.61" width="28.78" height="18.78" rx="2.39"/><path d="M142,395.22a1.78,1.78,0,0,1,1.78,1.78v14a1.78,1.78,0,0,1-1.78,1.78H118a1.78,1.78,0,0,1-1.78-1.78V397a1.78,1.78,0,0,1,1.78-1.78h24m0-1.22H118a3,3,0,0,0-3,3v14a3,3,0,0,0,3,3h24a3,3,0,0,0,3-3V397a3,3,0,0,0-3-3Z"/><path class="cls-3" d="M129.92,408.56a.48.48,0,0,1-.15-.36l-.31-4.24a.49.49,0,0,1,.49-.5h0l4.24.31a.53.53,0,0,1,.52.5.48.48,0,0,1-.15.36l-.95.95,1.6,1.59a.47.47,0,0,1,0,.65l-1.39,1.39a.47.47,0,0,1-.65,0l-1.59-1.6-1,.95A.5.5,0,0,1,129.92,408.56Z"/><path d="M135.37,408,134,409.37a.69.69,0,0,1-1,0L131.58,408l-.79.78a.74.74,0,0,1-1,0h0a.74.74,0,0,1-.21-.51l-.31-4.25a.73.73,0,0,1,.21-.52h0a.72.72,0,0,1,.52-.21h0l4.23.31a.73.73,0,0,1,.73.73.72.72,0,0,1-.2.52l-.79.79,1.43,1.43A.69.69,0,0,1,135.37,408Zm-4-.51.16-.17,1.76,1.76a.23.23,0,0,0,.32,0l1.39-1.39a.22.22,0,0,0,0-.32l-1.75-1.76,1.11-1.11a.27.27,0,0,0,.08-.19.29.29,0,0,0-.29-.29l-4.27-.3a.23.23,0,0,0-.17.07h0a.23.23,0,0,0-.07.19l.3,4.25a.31.31,0,0,0,.09.2h0a.27.27,0,0,0,.39,0Z"/><path d="M55.51,395.71v2h4.63l-9.84,9.84L51.73,409l9.84-9.83v4.63h2v-8.08Z"/><polygon points="102 399.73 99.08 399.73 99.08 396.81 97.92 396.81 97.92 399.73 95 399.73 95 400.89 97.92 400.89 97.92 403.81 99.08 403.81 99.08 400.89 102 400.89 102 399.73"/><rect x="128.23" y="401.13" width="0.5" height="2" transform="translate(-237.81 192.26) rotate(-42.47)"/><rect x="127.37" y="403" width="0.5" height="2" transform="translate(-290.22 474.08) rotate(-81.99)"/><rect x="130.25" y="400.63" width="0.5" height="2"/><path class="cls-3" d="M325,83a8,8,0,0,1,8,8v8H317V91a8,8,0,0,1,8-8m0-2h0a10,10,0,0,0-10,10v8a2,2,0,0,0,2,2h16a2,2,0,0,0,2-2V91a10,10,0,0,0-10-10Z"/><rect class="cls-9" x="319.04" y="87.8" width="12" height="2.45"/><path class="cls-9" d="M321.28,94.27a1.45,1.45,0,0,1-1.47,1.44h-.63V97h-1v-4.2h1.59A1.45,1.45,0,0,1,321.28,94.27Zm-1,0a.52.52,0,0,0-.51-.54h-.63v1.08h.63A.51.51,0,0,0,320.32,94.27Z"/><path class="cls-9" d="M321.55,94.93a2.18,2.18,0,1,1,2.18,2.19A2.16,2.16,0,0,1,321.55,94.93Zm3.4,0a1.22,1.22,0,1,0-1.22,1.25A1.19,1.19,0,0,0,325,94.93Z"/><path class="cls-9" d="M326.1,96.08l.82-.48a.88.88,0,0,0,.88.58c.46,0,.57-.18.57-.34s-.24-.36-.87-.53-1.23-.48-1.23-1.28a1.31,1.31,0,0,1,1.41-1.28,1.61,1.61,0,0,1,1.53,1l-.81.47a.72.72,0,0,0-.72-.48c-.3,0-.45.15-.45.31s.1.33.75.53,1.35.41,1.35,1.3-.64,1.29-1.56,1.29A1.64,1.64,0,0,1,326.1,96.08Z"/><path class="cls-9" d="M332.48,93.76H331.4V97h-1V93.76h-1.07v-.93h3.11Z"/><path class="cls-10" d="M325,109a8,8,0,0,1,8,8v8H317v-8a8,8,0,0,1,8-8m0-2h0a10,10,0,0,0-10,10v8a2,2,0,0,0,2,2h16a2,2,0,0,0,2-2v-8a10,10,0,0,0-10-10Z"/><rect class="cls-9" x="319.04" y="113.8" width="12" height="2.45"/><path class="cls-9" d="M321.28,120.27a1.45,1.45,0,0,1-1.47,1.44h-.63V123h-1v-4.2h1.59A1.45,1.45,0,0,1,321.28,120.27Zm-1,0a.52.52,0,0,0-.51-.54h-.63v1.08h.63A.51.51,0,0,0,320.32,120.27Z"/><path class="cls-9" d="M321.55,120.93a2.18,2.18,0,1,1,2.18,2.19A2.16,2.16,0,0,1,321.55,120.93Zm3.4,0a1.22,1.22,0,1,0-1.22,1.25A1.19,1.19,0,0,0,325,120.93Z"/><path class="cls-9" d="M326.1,122.08l.82-.48a.88.88,0,0,0,.88.58c.46,0,.57-.18.57-.34s-.24-.36-.87-.53-1.23-.48-1.23-1.28a1.31,1.31,0,0,1,1.41-1.28,1.61,1.61,0,0,1,1.53,1l-.81.47a.72.72,0,0,0-.72-.48c-.3,0-.45.15-.45.31s.1.33.75.53,1.35.41,1.35,1.3-.64,1.29-1.56,1.29A1.64,1.64,0,0,1,326.1,122.08Z"/><path class="cls-9" d="M332.48,119.76H331.4V123h-1v-3.27h-1.07v-.93h3.11Z"/></g><g id="이미지"><path class="cls-11" d="M286.9,401.68c1.06-.85,3.74-1.46,3.81-.51-.07-1-.1-1,1.7-1.84,0,.31.44.39,1,.36s1.24-.1,1.77-.15a4.78,4.78,0,0,0-1.72-.37c-.73,0-1.65,0-2.88.09-1,.86-2.69.92-4.36,1.15a12.22,12.22,0,0,0-2.39.45,3.23,3.23,0,0,0-1.7,1.07,18.68,18.68,0,0,1,2.34.11A5.45,5.45,0,0,0,286.9,401.68Z"/><path class="cls-11" d="M296.62,404.73l.29-.38c-1.15.21-2.29.48-3.41.77C294.15,404.73,296.51,404.28,296.62,404.73Z"/><path class="cls-11" d="M312.59,406.59a9.28,9.28,0,0,0-1.92-.92,35.38,35.38,0,0,0-4.75-1.41,21,21,0,0,1,2,.84c-.49.6,1.1,1.43.84,2.06.19-.68.86-.51,1.66-.14a25.7,25.7,0,0,0,2.39,1.27l1-.71A4.51,4.51,0,0,0,312.59,406.59Zm-2.24.16c-1.52-1,.33-.43,1.2-.29C311.15,406.54,310.74,406.65,310.35,406.75Z"/><path class="cls-11" d="M318.5,409.18c-.82-.42-1.61-.88-2.45-1.25s-1.65-.75-2.51-1c.61.44,1.17,1,1.74,1.45C316.38,408.53,317.4,408.88,318.5,409.18Z"/><path class="cls-11" d="M317.43,411.23c-.55-.37-1.23-1.28-.21-1.07a4.75,4.75,0,0,0,1.84,1.62,3.42,3.42,0,0,1,1.7,1.59c-.5-.27-1-.56-1.48-.8-.18.4.58.8,1.29,1.22s1.3.95.71,1.48c1.15.38,1.12-.14,1.09-.6s0-.84,1.29,0c-2.12-1.87-3.55-3.37-5.32-5a12.51,12.51,0,0,0,1.24,1.58,14.21,14.21,0,0,0-2.47-1.4l-1.39-.65c-.48-.19-.94-.38-1.38-.59.21.71.74,1,1.33,1.33A5,5,0,0,1,317.43,411.23Z"/><path class="cls-11" d="M323.31,416.84c.52.69,1.21,1.54,1.83,2.25a4.41,4.41,0,0,0,1,.83,1.37,1.37,0,0,0,.95.26,1.94,1.94,0,0,0-.91-1.71c-.42-.22-.9-.24-1.34-.43-.16-.54-1.24-1.94-.29-1.8C324.51,416.6,323.15,415.94,323.31,416.84Z"/><path class="cls-11" d="M326.93,422.51c.49.21,1,.43,1.5.67l-.52-.67.65-.43a4.29,4.29,0,0,1-1.05-.21,2.46,2.46,0,0,1-1.5-1.26C326,421.68,326.73,421.58,326.93,422.51Z"/><path class="cls-11" d="M331.84,420.51a3.88,3.88,0,0,0,.53,1.75l1,1.72-.69-1.66-.83-1.61a5.2,5.2,0,0,0-1.48-1.94l.25.05s-.38-.37-.93-.84a10.79,10.79,0,0,0-2-1.31A6.3,6.3,0,0,1,329,418c.37.54.68,1.12,1,1.61C330.63,420.56,331.1,421.24,331.84,420.51Z"/><path class="cls-11" d="M330.55,418l1.36,1.09Z"/><path class="cls-11" d="M329.08,427.32a19.68,19.68,0,0,0-.5-2.61l-.08.72A13.75,13.75,0,0,1,329.08,427.32Z"/><path class="cls-11" d="M331.06,423.11c.69,2.3.33-1.56,1.1.59.14.28-.1-.54-.58-1.36s-1.08-1.67-1.34-1.64C330.31,421.31,331.78,422.53,331.06,423.11Z"/><path class="cls-11" d="M329.42,429l1.12,2Z"/><path class="cls-11" d="M329.33,434.31l.56.44c-.28,1-.35,2.24-.58,3.37a4,4,0,0,1-1.43,2.69c.78-.15,1.14,1.28,1.89-.47-.3-.39-.14-1-.6-1,.31-.74.79-.47,1.07-1-.31-1.46.31-3.53-.23-4.65a1.91,1.91,0,0,1-.12,1.05,2.63,2.63,0,0,1,.12-2.33c.25-.53.46-.92-.43-1.33.31.37.16.94,0,1.52A4.73,4.73,0,0,0,329.33,434.31Z"/><path class="cls-11" d="M333.24,434.23c.12-.69.11-1.4.17-2.11.39.31.43,1,.45,1.58s-.05,1.19.29,1.39c.23-.06.42-.62.59-1.09s.26-.82.44-.41c-1.79-.26-.23-3-2.17-1.77a5,5,0,0,1,0-1.32.91.91,0,0,1,.3-.52c.25-.27.53-.57.23-2l-1.12-.58a6.48,6.48,0,0,1,.53,1.9,14.1,14.1,0,0,1,.13,1.49c0,.46,0,.94,0,1.48S333.18,433.43,333.24,434.23Z"/><path class="cls-11" d="M334,439.62c.53-1.55.17-1.52-.18-1.51s-.64,0-.26-1.72c0,.61-.1,1.21-.2,1.81s-.17,1.21-.31,1.79Z"/><path class="cls-11" d="M329.87,448c.19-.31.33-.63.2-.72-.18.39-.35.78-.55,1.15S329.6,448.39,329.87,448Z"/><path class="cls-11" d="M328.23,447.1c-1.39,1-2.63,1.71-3.11,2.91a7.77,7.77,0,0,1-2.53,4,31.49,31.49,0,0,0-3.43,3.31c-.52,1.67,1.33-.86,1.76-.72.78,1.28-1.57.7-1.21,2,.64.87,3.1-1.82,4.46-2.63.67-1.09.38-1.28.15-1.93.65.09,1.54-.87,2.19-.82a8,8,0,0,1,1.77-2.9,5.68,5.68,0,0,0,1.5-3c.15-.06.24-.06.29,0a1.3,1.3,0,0,1,.08-.17l-.18.08a8.07,8.07,0,0,1,.68-2.39A10.81,10.81,0,0,1,328.23,447.1Zm-2.16,5-.29.19a1.08,1.08,0,0,1-1,.66l1-.66C326.15,451.63,326.08,450.86,326.07,452.12Z"/><path class="cls-11" d="M332.57,441.12a3.07,3.07,0,0,0,.26-.4Z"/><path class="cls-11" d="M332.57,441.12c-.49.64-1.08.82-1-.18.38-.23.74-.48,1.11-.73a26.87,26.87,0,0,0-.79-2.77,3.09,3.09,0,0,1,0,1.48,10,10,0,0,1-.46,1.31c-.3.79-.54,1.38.2,1.81-.28.26-.55.52-.85.76l.94-.24c.12-.21.23-.43.34-.62S332.42,441.36,332.57,441.12Z"/><path class="cls-11" d="M330.65,444.77a7,7,0,0,0,1.1-2.22h0c-.18.34-.37.69-.56,1.06S330.82,444.39,330.65,444.77Z"/><path class="cls-11" d="M322.9,456.45l-.43-1.32c-.1.49-.21,1-.34,1.46Z"/><path class="cls-11" d="M318.66,459.15c-.33,1.19.92.61,1.69-.42C319.53,459.53,318.76,459.6,318.66,459.15Z"/><path class="cls-11" d="M311.39,462.73c1.8-1.54-1.8,1.15-1.17-.76C310.3,462.55,309.81,463.83,311.39,462.73Z"/><path class="cls-11" d="M303.69,465.55c.53-.72.93-.79,1.2-.64A2.64,2.64,0,0,1,303.69,465.55Z"/><path class="cls-11" d="M325.9,447a5,5,0,0,1,.41-.71Z"/><path class="cls-11" d="M325.63,447.43l.27-.46A4.68,4.68,0,0,1,325.63,447.43Z"/><path class="cls-11" d="M313.1,459h0a.71.71,0,0,1,.21,0Z"/><path class="cls-11" d="M303.45,405.71a5.5,5.5,0,0,1-1.09-.07l1.08.07Z"/><path class="cls-11" d="M302.39,404a2,2,0,0,1,2.12.85,4.18,4.18,0,0,0,2.87,1.35c-1.26-.22-2.6-.31-3.94-.44C301.8,404.32,305,405.28,302.39,404Z"/><path class="cls-11" d="M326.67,416l.1.07C326.93,416.17,326.84,416.11,326.67,416Z"/><path class="cls-11" d="M242,447.92c.33-1,0-2.22.23-2.76C243.13,445.65,242.14,447.05,242,447.92Z"/><path class="cls-11" d="M238.44,444.65a2.74,2.74,0,0,1,.08-.5,4.82,4.82,0,0,0,.1.54Z"/><path class="cls-11" d="M238.62,444.69l.44.1C238.84,445.11,238.7,445,238.62,444.69Z"/><path class="cls-11" d="M238.52,444.15a7.22,7.22,0,0,0-.25-1.36l-.15.46c0-.67-.1-1.88.21-2.13-.36,1.25-.05,1.34.56,1.5.18-.66.36-1.33.55-2C240.83,441.38,238.91,442.31,238.52,444.15Z"/><path class="cls-11" d="M239.74,437.7c0,.77.12,1.53.22,2.28C239,440.33,239.46,438.45,239.74,437.7Z"/><path class="cls-11" d="M241.74,435.13c0,.55-.75,2.39.06,1.4a2.56,2.56,0,0,1-.26,1.1C241.79,436.29,240.4,437.13,241.74,435.13Z"/><path class="cls-11" d="M241.54,437.63a3.49,3.49,0,0,1-.14.56A2.55,2.55,0,0,1,241.54,437.63Z"/><path class="cls-11" d="M243.92,458.16c.07-.25.18-.27.3-.2Z"/><path class="cls-11" d="M244.34,431.79l.37-.66c-.1.19-.18.38-.26.56Z"/><path class="cls-11" d="M267.36,473.64c-1.95-.33-3.61-.86-6.47-1.42-.18.51-.49.47-.83.42a.84.84,0,0,0-1,.31,15,15,0,0,1-4-2.22,32.94,32.94,0,0,1-3.4-2.68c-.8-.73-1.23-1.05-.89-.44l.89.31-1.41.07a22.5,22.5,0,0,1-1.11-2.58,3.93,3.93,0,0,0-1.22-2c.07-.22,1.66,2.93,4.1,5.42s5.35,4.29,5.19,4c.1.45-.93.16-2.48-.75a22.08,22.08,0,0,1-5.16-4.54,26.32,26.32,0,0,1-3.84-6.23,31.68,31.68,0,0,0-1.42-3.4l.63-.39c-1.28-2.4-2.46-4.09-3-6.45l.84-.53c-.26,1.7.33,2.16.86,3.8-.44-2.92.14-3.47.06-5.68-1.09,0-.67,1.93-1.07-1,.53-.78,1.51,1.19,1.57-1.31.74-2.91-.93-2.62-.36-5.3-.31.55-.58,1.12-.84,1.7.15-1,.43-2.92,1.32-3.65-.49,1.06-.58,4,.52,4.16,0-1.15,1.08-3.39,1.35-4.3l.54.8c1-.74.2-1.67,1.3-2.63.1-1.3-1.31.26-1.32-.49a6.56,6.56,0,0,0,1.7-3.15c-.86-.12-1.08.61-1.35,1.43a3.08,3.08,0,0,1-1.53,2.23c.36-.71.8-1.39,1.19-2.07-.39-1-.81-.16-1.18.84s-.69,2.1-1.15,1.5c-.45-1.16.31-1.92,1-2.63s1.34-1.39.84-2.64a13.59,13.59,0,0,0-1.64,2.3c-.52.87-1,1.56-1.16,1.23A2.3,2.3,0,0,0,244,434a7.68,7.68,0,0,1,.41-2.32c.59-.53,1.14-1.07,1.74-1.56.05-1.05-.34-.43-1,.05a45,45,0,0,0,3.78-4.89,18.6,18.6,0,0,1,5-4.92c1.73-2-.26-.73.23-2,1.68-.29,2.94-2.46,4.11-3.37.39-.22.42-1.46-.15-1.5-.86.93-1.7,1.9-2.51,2.87-.2-.5-1.17-.75-2.12.26,1,.36-.2,1.06-1.45,2s-2.54,2-1.84,2.8l-.68-.67c-.94,1.39-1.83,2.81-2.63,4.29l.19,0c-.12-.1-.64.82-1.28,2.08a31.78,31.78,0,0,1-2.26,3.93c.06-.87,2.83-4.64.5-2.85.63-2.1,3.45-4.68,5.64-7.68l-1,.12a17.07,17.07,0,0,1,4.47-4.89c1.82-1.48,3.8-2.77,5.44-4.14l-.47,1.47c1.39-.65,3.32-1.18,4-2.57-1.45,1.05-1,.12-.93-.37,1.73-1.81,5.06-3.25,7.86-5.11,0,0-.06.24.13.29,1-.68,1.91-1.41,2.92-2.05a5.81,5.81,0,0,1,3.49-.16c.52-.35,1.93-.89,1.21-1.17a2.59,2.59,0,0,0-.83.29c1.32-1.57,1.27-.18,3.18-1.51-1.36,1.35.88.9.95,1.77,2.34-1.11-.22-1.47,0-1.92a15.29,15.29,0,0,1,3.49-.2c.47,0,.93,0,1.47,0a15.33,15.33,0,0,0,2-.21c.08-.53-2.29.12-2.69-.34a4.52,4.52,0,0,0,2.09-.58c-.67,0-1.36,0-2,0A99.06,99.06,0,0,0,294.88,398l-.32-.24c.8,0,1.58-.09,2.38-.06-.28.32-.56.62-.83,1,1.27-.26,2.6.59,3.3-.13a3.73,3.73,0,0,0-.46-.09c.53-.09,1.07-.14,1.61-.21-.57.28-1.13.54-1.68.85a9.15,9.15,0,0,0,3.6-.35,21.2,21.2,0,0,1,2.25-.29,9,9,0,0,1,2.43.26c.21.71-1.23.49-2.8.41a14,14,0,0,0-2.27.05c-.66.12-1.15.35-1.29.75,1.05.3,2.79.86,3.49.5-.05-.46-.82-.57-1.59-.68a7.55,7.55,0,0,1,2.37,0c.82.15,1.66.36,2.46.56,1.63.49,3.13.88,4.24.55a21,21,0,0,0-2-1.2,6.43,6.43,0,0,1,2.89,1.61c.7.55,1.17,1,1.76.75a24.18,24.18,0,0,0-2.47.75,8.1,8.1,0,0,1,2,.36,18.93,18.93,0,0,1,2.05.68c1.34.56,2.64,1.14,3.81,1.57.28-.37-.46-.86-1.25-1.23a10.3,10.3,0,0,1-1.54-.6l1.36,0a7.12,7.12,0,0,1,1.88,1.83,22.85,22.85,0,0,0,2.21,2.29l.42-.48a6.49,6.49,0,0,0,2.38,2.18c.86.59,1.31,1.06.18,1.11-.19-.4-.43-.75-.64-1.13l-.44.64a26.14,26.14,0,0,1,2,1.63,22,22,0,0,1,1.94,1.8c-.76,0,1,1.81,0,1.76l1.66,1.16c-.2.67-1,.13-1.79-.5s-1.75-1.29-2.12-1.1c-.34.38.25,1,.57,1.26a3.41,3.41,0,0,1-1.57-2.22,5.72,5.72,0,0,0-1.31-2.55l-1.28-.21.67-.68a3.27,3.27,0,0,0-2.3-.37,4.18,4.18,0,0,0-2.56-2.3,27.07,27.07,0,0,1-3.87-1.8c1.31.38,1,0,.5-.53s-1.43-1-1.16-1.05a6.53,6.53,0,0,0-1.44-.38l-1.91-.22c-1.27-.19-2.5-.31-3-1.07-.75-.68,2-.17,0-.94-1.38-.18-2.38.15-1.62.76a66.62,66.62,0,0,0-9.66-.74c.25-.23.51-.43.76-.64a5.14,5.14,0,0,0-2.9.17,7,7,0,0,0-2,1.18c-.31-.22-.44,0-.18-.43-2.7-.69-3.06,1.69-7,2.45.22.4.78.51,1.42.42a4.93,4.93,0,0,0,2-.65l-.12,1.06c3.38-.68,7.2-1.22,10.06-1.75l-1.3.74c1.21.69,1.62.37,2.05.06s.85-.53,1.92.32c1.71-.25-1.17-.61.13-1,1.17.39-.44,1.69,1.48,2a50.5,50.5,0,0,0-11.36.6,53,53,0,0,0-11.19,3.16c-.07.23.33.16.73.09a6.15,6.15,0,0,1-1.53.92c-.38.17-.81.35-1.28.53l-1.51.64c-2.17.89-4.86,2-7.39,3.36-5.11,2.64-9.44,6.17-8.75,7.39-.55,0,.07-1.18-1.09-.06,0,.23-.1.7.43.72a13.81,13.81,0,0,0-5.12,4.55c-1.5,2-2.81,4.13-4.41,6,.44.13.14,1.17.41,1.34a4.47,4.47,0,0,0-1.68,2.53,10,10,0,0,1-1.13,2.72l.65-.3a38.52,38.52,0,0,0-1.27,4.59c.16.17.31-.46.46-.81,0,1.05-.59,1.17-1.05,1.19.24.77.49,1.52.79,2.25a10.78,10.78,0,0,0-.85,4.79,17.69,17.69,0,0,0,1,5.08,34.72,34.72,0,0,0,2.09,4.78c.81,1.5,1.68,3,2.48,4.48a6.57,6.57,0,0,1,3.38,1.67l-.39-.73c1.69.57-.24.39,1,1.07,1.09.15,1.06-.8-.14-1.28-.35-.74.22-.63.75-.43a30.3,30.3,0,0,0,5.31,4.16A39.33,39.33,0,0,0,267.36,473.64Z"/><path class="cls-11" d="M285.59,477.84c.81-.19-1.83,2.21.05,1.67,5.15-2.44,10.75-8.74,16.34-11.54a17.56,17.56,0,0,0,3.39-1.4.86.86,0,0,0-.35-.36c1.32-1,3.21-2.89,4.73-3.61.24-.44.05-1.19-.52-.5,1.5-2.05,4.08-1.79,4.73-3.12-1.18.44.44-1.27-.86-.6,1.75-1.76,3.31.18,4.89-1.05-.06-.22-.12-.43-.44-.19,1.13-.4,2.14-1.84,3-3s1.55-2.14,2.33-1.73c0-.38-.05-.77-.08-1.15,1-.48,1.22,0,2.29-1.32.34-1-.57-.3-.58-.76.42,0,.91-.67,1.49-1.41a7,7,0,0,1,1.89-2c.5.19-.07.59-.75,1.09s-1.45,1.12-1.37,1.91c.17.15.32,0,.47-.2a23.9,23.9,0,0,1-6.62,6.55l-1.72,1.26c-.55.4-1.09.76-1.59,1.16a18,18,0,0,0-3,2.75,1.93,1.93,0,0,0-1.6,2.31c1-.39,3.66-1.77,2.68-2.94.66-.14,1.29-.29,1.94-.45.42-.5,1.48.61,1.87.58-1,.73-1.07,2.82.57,2-1.18,1.24-1.53.43-1.82-.34s-.54-1.57-1.49-.47l.42,1.1c0-.8-2.19.49-2.67,1.37l.44-.09c-6.21,4.67-14.1,11.43-20.38,17.31-1.7-.35-2.73.9-3.69,2.18a12.69,12.69,0,0,1-1.45,1.79,2.45,2.45,0,0,1-1.85.79c-.4.94,1.65-.29.62,1.24-.48.79-1.07.38-1.2.22l-.4.77a3.37,3.37,0,0,1-2.14-3.17,5.89,5.89,0,0,1,.12-1.39,10.18,10.18,0,0,1,.43-1.55A19.84,19.84,0,0,1,285.59,477.84Z"/><path class="cls-11" d="M368.65,449.5c-.54-.48-1.29,0-1.84-.36,1.24.7-.37,1.21-.56,1.88l.8.78c1-.16,1.56-1.76,2.35-2.91Zm-1,1.4-.38-.73C368.06,449.7,367.71,450.49,367.69,450.9Z"/><polygon class="cls-11" points="366.89 454.13 367.62 451.86 366.72 452.45 366.89 454.13"/><path class="cls-11" d="M364.82,453.07c.16-.26.75-.47.85.09-1.16.29-.37,1.35-1.39,1.65l.05-.83c-.83-.37,0,1.8-1.35,1,.48,1.43,1.57,0,1.61,1.56a5.75,5.75,0,0,1,1.89-2.55c-.44.09-.45.22-.89.45.33-.65.4-1.75.74-2.55C365.2,451.73,365.7,452.75,364.82,453.07Z"/><path class="cls-11" d="M362.76,456.16c-.48.64-1.11,1.68-.16,2.47,1.16-.29.34-.93.09-1.51.29-.11.77-.75,1.16-.15C363.56,456.94,363.33,456.08,362.76,456.16Z"/><path class="cls-11" d="M361,458.74l.65,1,0-.41.69.35c-.13-.16-1.22-1.1-.75-1.74C360.92,458,361.46,458.51,361,458.74Z"/><path class="cls-11" d="M365.56,461.57c-.73.2-.61.63-.65,1.31.33-.79,1-1.82.71-2.27l.13.16a6.63,6.63,0,0,0-.46-1.85C365.51,460.05,363.75,460.83,365.56,461.57Z"/><path class="cls-11" d="M366.18,460.68l.24.85Z"/><polygon class="cls-11" points="360.03 460.99 360.94 460.12 360.5 460.21 360.03 460.99"/><path class="cls-11" d="M363.57,461.36c-.61.76,1,0,.53.75,0,.27.64-1.18.23-1.5C364,460.72,364.41,461.73,363.57,461.36Z"/><path class="cls-11" d="M359.56,461.63l.21,1.27Z"/><path class="cls-11" d="M357.88,463.53l.4.46c-.89.6-.83,2.13-2.26,2.13.7.2,1.08,1.07,1.69.44-.27-.3-.11-.56-.53-.74.3-.25.71.07,1,0-.24-.86.65-1.46.41-2.17,0,.27-.16.26-.31.38-.35-1.42,1.87-.36.66-1.59C359.19,463,357.91,463,357.88,463.53Z"/><path class="cls-11" d="M361.34,465.4l.6-.63c.54.61-.47.92.07,1.39.42.18,1-.44,1.14,0-1.51-1,.49-1.05-1.47-1.67.34-1.07,1.12.26,1.61-.79l-.67-.76C362.4,464.27,361.56,464,361.34,465.4Z"/><path class="cls-11" d="M361.49,467.9c1-.86-1.26-.54-.2-1.54l-.65,1.32Z"/><path class="cls-11" d="M353.15,475.23c.3.7,1,.45,1.14-.1A.76.76,0,0,1,353.15,475.23Z"/><path class="cls-11" d="M349.5,477.19c.51-.94-.71.68-1.27-.5C348.6,477.06,348.92,477.85,349.5,477.19Z"/><path class="cls-11" d="M345.4,478.87c0-.44.25-.48.52-.39C345.77,478.71,345.6,478.88,345.4,478.87Z"/><path class="cls-11" d="M355,469a1.3,1.3,0,0,1,.21-.31Z"/><path class="cls-11" d="M354.89,469.21,355,469A1.93,1.93,0,0,1,354.89,469.21Z"/><path class="cls-11" d="M348.84,474.89h0l.14,0Z"/><path class="cls-11" d="M368.25,447.1a1.52,1.52,0,0,1,.19-.47l-.18.47Z"/><path class="cls-11" d="M369.94,447.43c.2,1.13-2-.09-2.25,1.4a17.47,17.47,0,0,1,.57-1.73C369.68,447,368.47,448,369.94,447.43Z"/><path class="cls-11" d="M365.18,458.3a.15.15,0,0,0,0,.06C365.18,458.45,365.17,458.4,365.18,458.3Z"/><path class="cls-11" d="M389.46,418.07c-.45.21-.24.94-.54,1C388.13,418.43,389.15,418.3,389.46,418.07Z"/><path class="cls-11" d="M392.15,421.11a.48.48,0,0,1-.1.17A1.07,1.07,0,0,0,392,421Z"/><path class="cls-11" d="M392,421l-.38-.26A.33.33,0,0,1,392,421Z"/><path class="cls-11" d="M392.05,421.28a1.83,1.83,0,0,0,.16.67l.15-.11c0,.27.06.84-.22.79.32-.36.05-.54-.49-.9l-.49.62C390,421.4,391.6,421.82,392.05,421.28Z"/><path class="cls-11" d="M391,423.58l-.31-1.16C391.56,422.69,391.21,423.32,391,423.58Z"/><path class="cls-11" d="M389.56,424.05c-.11-.3.38-.91-.21-.73-.08-.2,0-.31.12-.44C389.37,423.44,390.51,423.57,389.56,424.05Z"/><path class="cls-11" d="M389.47,422.88a.79.79,0,0,1,.09-.22A.49.49,0,0,1,389.47,422.88Z"/><path class="cls-11" d="M390.79,413.69a.3.3,0,0,1-.31-.13Z"/><path class="cls-11" d="M387.9,424.91l-.17.25a.67.67,0,0,0,.1-.23Z"/><path class="cls-11" d="M394.68,399.3a5.3,5.3,0,0,0-2,3c.94.57-.08.68.84,1.39.74-1.42-2.69,5.39-1.59,4.6l-.22-.6.75,1c-.65.48-2,.86-1.72,1.65-.38-.08,3.47-5.48,3.07-5.45,1.42.23-3.75,8.15-3.37,8.68l-.65-.29c0,1.39.44,2.57.32,3.66l-.83-.26c.63-.47.25-.94.34-1.76-.56,1.16-1.13,1.08-1.51,2,.94.56.9-.42.76,1-.58,0-1.15-1.28-1.55-.23-1,1,.55,1.61,0,2.64l.76-.44c-.18.39-.41,1.19-1.13,1.22a1.72,1.72,0,0,0-.48-2.3c0,.55-1,1.25-1.17,1.64l-.51-.63c-.86,0-.08.82-1,1,.07.7,1.12.3,1.22.73-.28,0-1.21.66-1,1.24,1.51.64.28-1.34,2-1.09l-.79.71c1,1.4.86-1.4,1.76-.43,1,1.53-2.2.51-.8,2.24.59-.19,1.44-1.46,1.82-1-.79.13,0,1.06-.25,1.79l-1.11.36c.23.59.39.34.83.26-1.49.62-1.72,3.08-3.68,4-.38,1.06.53.49.75,1.21-1.15,0-1,1.25-1.3,1.76-.16.12.49.9.91,1l.29-1.62c.4.33,1.23.58,1.42.06-1.79-.67,2.12-1.22.37-2.44l.81.53.48-2-.14,0c.27.18.3-1.76,1.23-2.45.1.43-1.17,1.76.29,1.42,0,1-1.45,1.73-1.87,3.19l.71.1c0,1.79-2.13,2.87-2.84,4.43l-.49-.89c-.6.33-1.63.6-1.27,1.48.34-.64.57-.06.83.25-.09,1.09-1.33,2-1.72,3.36a.54.54,0,0,0-.27-.18l-.27,1.48c-.46.5-1,.42-1.75.46,0,.28-.35.79.22.86.11-.09.22-.17.22-.27.47,1.11-.5.28-.45,1.34-.35-1-1.11-.42-1.79-.92-.23,1.08,1.22.85,1.48,1.16-1.07.83-1.76.6-2.55,1.6.4.33.76-.59,1.31-.38-.3.24-.48.63-.34.78l.74-.46a5.55,5.55,0,0,0-2.39,3.29l.28,0-.48.77-.66-.77c0,.55-1,.56-.52,1.18l.16-.12-.06.68-.49-1c-.75.46.4,2.4-.39,3.4-1.25-.42.72-2.11-.63-3.11-.45.23-1.05.71-.8,1.15.42.19.58-.07.74-.32.19,1.4-1.86,2.12-1,3.47l.89-.45c-.35.92-2.18.57-1.52,1.34l-1-1.5c.19,1.26-.59,2.27-.52,3.38.82.51.65-1.16.78-1l.38.73c-1.2,1-.71.06-2.08,1.28l.55.34c-1.14,0-.29,2.3-1.49.93l.59-.21-.69-.35-.56,2c-.4-.46-.75.47-1.28-.14l.23,1c-1.13-.26-.46-1.84-1.14-2.33-.45-.23-.58.1-.6.29-.25-1.19,1.63-.61,2.1-1.36l-.38-.74.82.51a2.27,2.27,0,0,0-.63-1.31c1.58-.1.68-1.72,1.61-2.72-.08,1.23,1.16-.14,1.28.15.32-.52-.38-2.67.89-2.52.58-.07.22,1,.83.37.18-.53-.06-1.11-.64-1a19.78,19.78,0,0,1,2-3.49l.38.6c.89-.44.55-1.59.18-2.33.28,0,.15-.12.41.19,1.46-.37-.42-1.85.68-3.23-.82-.38-1.3.25-1.21.95l-.81-.65a10.09,10.09,0,0,0-1.62,4.23l-.36-.88c-1.73.21.75,1.34-1.11,1.39-.06.83.73-.19.82.52-.52.3-1.46-1-2-.31a93.26,93.26,0,0,1,4.88-9.31c-.13-.15-.29,0-.44.09-.58-1.75,7.62-8,5.49-9.66.42.06.5.76.85.11-.13-.15-.25-.45-.67-.5,2.23-.81,2.22-3.73,4.22-5.11-.41-.2-.36-.74-.62-.92,1.3-.09,1-1.8,1.93-2.08l-.56-.09,1.2-1.91c-.13-.16-.3.1-.45.21.05-.55.6-.33,1-.13l-.42-1.45c3.17-1.47,2.68-6.14,5.53-8.35a2.19,2.19,0,0,1-.17-2.26l-.46.21c-.15-1.14.41.2.5-.62-.2-.73-1-.86-1,0-.49.2-.6-.19-.62-.57A12.75,12.75,0,0,1,394.68,399.3Z"/><path class="cls-11" d="M355.69,470a4.9,4.9,0,0,1-.58.7c.21,1.71-1.85,2.06-2.4,3.39.3,1,.71-.38,1.14-.23,1.15.87-1,.24-.13,1.09.86.59,1.7-.75,2.55-1,.14-.54-.15-.69-.58-1.12.57.16,1-.24,1.57-.08-.16-1.38,1.46-1.15,1.25-2.55a.56.56,0,0,1,.25.08l0-.08h-.15a1.36,1.36,0,0,1,.21-1.07c-1,.58-2.62.55-3.36,1A.2.2,0,0,0,355.69,470Zm-.84,4-.29-.84.86.86Zm1.69-2-.19.05c-.05.17-.22.3-.66.19l.66-.19C356.46,471.79,356.16,471.32,356.54,472.06Z"/><path class="cls-11" d="M358.86,469.15a1.7,1.7,0,0,0,.75-.75h0A2.89,2.89,0,0,0,358.86,469.15Z"/><path class="cls-11" d="M359.37,467.55l1,.1-.63-1.58c.37,1.14-1.63,1.08-.25,2l-.72.07.83.22a3.31,3.31,0,0,1,.67-.38C359.84,468.13,359.34,468,359.37,467.55Z"/><path class="cls-11" d="M360.26,468l.23-.08Z"/><path class="cls-11" d="M358.76,470.3l-.24.46C358.28,471,359.05,470.5,358.76,470.3Z"/><path class="cls-11" d="M355.5,470.1a.35.35,0,0,1-.17-.06c-.57-1,2.19-.68,1.21-1.19-1.14,0-1.49,1.31-2.21,1.14.15.29.72,0,.72.59-.57.52-.85.24-1.56.35l.43.7c-.93-.44-1.15.3-1.48,1.06a13.54,13.54,0,0,0,2.67-2v-.1A.68.68,0,0,1,355.5,470.1Z"/><path class="cls-11" d="M348.51,474.48c.63-.39.29.66.95.41.19.82-1.88.6-1.89,1.87.05-.43.59,0,.65.32-.73.43-1.08,1.59-1.49,2.21a1.59,1.59,0,0,1,.45.23,5.25,5.25,0,0,1-1.68.85c-2.5,1.72-3,5.64-5.65,6.82-1.13.21-.39-1.06-.9-1a6.64,6.64,0,0,0,4.58,5.86l0-.42c.17.11.82.42.87,0,.08-.86-.93-.25-1.06-.8,2.38.28,0-3.11,2.84-2.63,1.48-3.51,3.24-7.78,5.36-10.53l-.27.05c-.12-.55.86-1.28,1.26-.78l-.87-.7c.28-1.32,2.35,2,2.9.67-.85.39-1.86-.89-1.44-1.29-.28,0-1.63-.76-1.71-.47l-1.25.21c1.33.77.06,1.55-.47,1.78-.54-.59-1-1.31,0-1.42a3,3,0,0,1,.82-1.53C349.67,474.05,348.8,473.84,348.51,474.48Z"/><path class="cls-11" d="M351.37,473.88l.13,0A.14.14,0,0,0,351.37,473.88Z"/><path class="cls-11" d="M350.47,474.17c.54.08,1,.13,1.33-.13-.1-.1-.2-.2-.3-.2l-.13,0a.14.14,0,0,1,.13,0,1.88,1.88,0,0,0,.94-1.15A9.57,9.57,0,0,0,350.47,474.17Z"/><path class="cls-11" d="M355.5,470.1a.68.68,0,0,0-.39.52v.1a4.9,4.9,0,0,0,.58-.7A.2.2,0,0,1,355.5,470.1Z"/><path class="cls-3" d="M437.26,467.4c1.32-.65,4.3-1,4.28,0,0-1,0-1,2-1.74,0,.64,1.8.39,3,.32-1-.44-2.3-.48-4.94-.52-2.34,1.48-7.45-.36-9.61,1.31C433.63,467,435.27,467.87,437.26,467.4Z"/><path class="cls-3" d="M448.15,471.2l.34-.39-4.1.73C445.21,471.18,448,470.76,448.15,471.2Z"/><path class="cls-11" d="M461.47,470c-.38.7,1.72,1.13,1.67,1.77-.06-1.41,3.29-.28,5.1-.4l.75-1.07c-1.74-.84-6.2-.56-10-.64Z"/><path class="cls-3" d="M464.85,470.85l1.2-.69C465.05,470.33,462.75,470.42,464.85,470.85Z"/><path class="cls-3" d="M462.33,467c-3-.12,1.78.48-1.2.68C462.13,467.51,463.29,467.46,462.33,467Z"/><path class="cls-11" d="M474.66,469.42q-3.15.15-6.28.35l2.58.54C472.19,470,473.42,469.72,474.66,469.42Z"/><path class="cls-11" d="M474.92,471.76c-.81,0-2.08-.48-.9-.82,2.2.94,3.63-.23,5.68.6l-2,.28c.23.91,4.18-.74,4,.87,2.75-1-2-1.48,1.56-2.1a44.37,44.37,0,0,1-8.48-.71,12.33,12.33,0,0,0,2.24.61c-2,0-4.64.36-6.94.43C471.3,472,473,471.09,474.92,471.76Z"/><path class="cls-11" d="M484.85,472.44l.85.07,1,.07c.71,0,1.43.06,2.07,0,1.29,0,2.19-.28,2.06-.9-1.38-.53-1.9-.52-2.34-.34s-.68.55-1.2.78c-.36-.13-1.12-.24-1.64-.4s-.8-.35-.35-.65C485.64,471.39,483.92,471.92,484.85,472.44Z"/><path class="cls-11" d="M494.54,473.31a3.27,3.27,0,0,0,.52-1l-.83.11-.92-.84a1.33,1.33,0,0,1,.05.87c-.15.36-.73.65-2,.51a2.91,2.91,0,0,0,1.66.32A3.55,3.55,0,0,1,494.54,473.31Z"/><path class="cls-11" d="M489.56,467.6a2.3,2.3,0,0,0,1.19.37c.23,0,.31-.18.44-.32-.24,0-.53,0-.81,0-.76,0-1.53,0-1.56.33l-.05-.2-.4.35-1.06.87a5.9,5.9,0,0,1,2.42-.17C490.48,468.83,490.76,468.66,489.56,467.6Z"/><path class="cls-11" d="M488.17,467.41a1.6,1.6,0,0,0,.19-.61A1.6,1.6,0,0,1,488.17,467.41Z"/><path class="cls-11" d="M499.91,472a7.73,7.73,0,0,1-.16.81c0,.2-.16.15-.29.15h-.4c-.55,0-1.1,0-1.66-.08.37.1.73.18,1.09.25l1.08-.09c.08,0,.21,0,.24-.06l0-.33A4.76,4.76,0,0,0,499.91,472Z"/><path class="cls-11" d="M493,469.69c1,.16.45-.1-.12-.37s-1.12-.56-.39-.49c.09-.05-.32-.08-.76-.05s-1.12.15-.94.45c.53.19.81-.29,1.55.07A3.58,3.58,0,0,1,493,469.69Z"/><path class="cls-11" d="M499.84,469.77a11.78,11.78,0,0,0-1.79-2.87A11.78,11.78,0,0,1,499.84,469.77Z"/><path class="cls-11" d="M497.32,463.42c-.34-.15-.69-.29-1-.42a25.42,25.42,0,0,0-3-3.79c-.26-.31-.55-.66-.77-.94a8.51,8.51,0,0,1-.56-.82,4.29,4.29,0,0,1-.65-1.66c-.24.81-1.81.16-.48,2,.52,0,1.05.63,1.3.24a1.33,1.33,0,0,1,.26.91,1.24,1.24,0,0,0,.05.75,10.91,10.91,0,0,1,2.41,2.2,18.63,18.63,0,0,0,2.2,2.23,3.59,3.59,0,0,1-.77-1.14c1.58,1.22,1.62,2.05,1.64,2.56s0,.83,1.25,1.66a4,4,0,0,1-.85-1.8A4.27,4.27,0,0,0,497.32,463.42Z"/><path class="cls-11" d="M492.61,463.81a11.85,11.85,0,0,1,.63,1.22,2.49,2.49,0,0,1-1.19-.91,1.29,1.29,0,0,0-1-.64c-.46.15-.09,1-.76.66,1.24.06,1.55.42,1.81.71s.52.55,1.82.47c.75.94.34,1-.06,1s-.81,0-.5.87c.59.4,1.17.84,1.75,1.32a20.92,20.92,0,0,1-.94-2.53A4.59,4.59,0,0,0,492.61,463.81Z"/><path class="cls-11" d="M489,461.71c.35.78.61.56.92.38s.61-.35,1.19.63l-1.79-1.92-.12.51A2.13,2.13,0,0,1,489,461.71Z"/><path class="cls-7" d="M482.88,452.86l.1.14.95,1.06c.05,0,.08-.12.08-.29A7.23,7.23,0,0,1,482.88,452.86Z"/><path class="cls-11" d="M482.88,452.86v0s.79,1.38,1.06,1.22L483,453Z"/><path class="cls-11" d="M487.72,458.13v0a18.6,18.6,0,0,0-1.62-2.27A11.12,11.12,0,0,0,487.72,458.13Z"/><path class="cls-11" d="M490,459.33c-.54-.8-1-1.37-1.77-1l-.28-1.23-.24,1a17.27,17.27,0,0,1,.85,1.57c-.29-.81-.16-1.4.72-.7l0,1.42c.23.1.5.24.71.31s.39.12.6.19c.42.14.86.32,1.33.52C491,460.93,490.63,460.22,490,459.33Z"/><path class="cls-7" d="M480.1,448c1.33.48.5.27-.13-.36Z"/><polygon class="cls-7" points="476.02 443.32 477.49 443.23 475.94 442.47 476.02 443.32"/><path class="cls-7" d="M480,447.65l-.5-1.32A1.4,1.4,0,0,0,480,447.65Z"/><path class="cls-7" d="M480,447.65l-.5-1.32A1.4,1.4,0,0,0,480,447.65Z"/><path class="cls-7" d="M480.1,448c1.33.48.5.27-.13-.36Z"/><path class="cls-11" d="M486.11,455.84c-1.69-3.15-1.65-6.38-3.56-8-3.38-2.15-4.44-6-7.14-8.8-1.8-1,.88,1.66.67,2.11-1.43.52-.65-1.9-2.12-1.8-.94.49,1.79,3.76,2.42,5.43,1.07,1,1.3.79,2,.74-.19.66.65,1.89.46,2.55,2.16,1.47,2.46,3.23,4,4.75v0a7.23,7.23,0,0,0,1.13.91c0,.17,0,.26-.08.29l.14.16,0-.22A8.25,8.25,0,0,1,486.11,455.84ZM476,443.33l-.08-.86,1.55.76ZM480.1,448l-.13-.36a1.4,1.4,0,0,1-.5-1.32l.5,1.32C480.6,448.28,481.43,448.49,480.1,448Z"/><path class="cls-11" d="M473.36,438.11c-1.28-.56-.66.91.41,1.92C472.94,439,472.87,438.14,473.36,438.11Z"/><path class="cls-3" d="M468.93,429.58c1.88,2.15-1.44-2.11.7-1.25C469,428.38,467.56,427.72,468.93,429.58Z"/><path class="cls-11" d="M465,420.77c.85.64,1,1.09.84,1.38A3.58,3.58,0,0,1,465,420.77Z"/><path class="cls-11" d="M485.62,450.07a8,8,0,0,1,.63.78Z"/><path class="cls-11" d="M485.2,449.56l.42.51A4.32,4.32,0,0,1,485.2,449.56Z"/><path class="cls-11" d="M473.18,431.89h0a1.68,1.68,0,0,1,.07.24Z"/><path class="cls-11" d="M456.46,471.59a12.18,12.18,0,0,1-1.32.08l1.31-.09Z"/><path class="cls-11" d="M454.91,470c2.34-.77,2.52,1.75,6.32,1.2-1.54.16-3.14.29-4.78.41C454.26,470.42,458.13,470.94,454.91,470Z"/><path class="cls-11" d="M486.47,469.36l.1,0C486.73,469.3,486.65,469.33,486.47,469.36Z"/><path class="cls-11" d="M413.1,442.82c-.9.73-1.18,2.16-1.7,2.57C410.77,444.48,412.4,443.5,413.1,442.82Z"/><path class="cls-11" d="M414.56,447.5a3.07,3.07,0,0,1-.28.42c.06-.2.11-.39.14-.54Z"/><path class="cls-11" d="M414.42,447.38l-.36-.28C414.41,446.9,414.47,447.07,414.42,447.38Z"/><path class="cls-11" d="M414.28,447.92a6.16,6.16,0,0,0-.31,1.32l.32-.35c-.26.6-.59,1.73-1,1.84.78-1,.52-1.19,0-1.59-.41.55-.83,1.09-1.22,1.66C411,449.61,413.17,449.36,414.28,447.92Z"/><path class="cls-11" d="M411,453.52l.41-2.26C412.42,451.24,411.42,452.86,411,453.52Z"/><path class="cls-11" d="M408.49,455.62c0-.56,1.2-2.27.19-1.42a2.46,2.46,0,0,1,.52-1.05C408.62,454.44,410.19,453.87,408.49,455.62Z"/><path class="cls-11" d="M409.2,453.15a5.06,5.06,0,0,1,.29-.53A2.47,2.47,0,0,1,409.2,453.15Z"/><path class="cls-11" d="M419.33,432.75c-.26.13-.34.05-.35-.11Z"/><path class="cls-11" d="M405.47,458.77l-.4.69a4.37,4.37,0,0,0,.28-.58Z"/><path class="cls-11" d="M443.87,402.85c-1.23.79-2.45,1.56-3.72,2.51a30.63,30.63,0,0,0-4,3.72c.78.76-1.07,1.35-.49,2.38.78-.74.44-.41-.47.49s-2.39,2.33-3.8,3.88-2.83,3.11-3.69,4.19-1.22,1.63-.53,1.11l.37-1.09.07,1.56c-1.65,1.26-4.22,2.72-4.69,4.19-.14,0,.54-.79,1.62-2l1.88-2.05,2.25-2.28c3.06-3.09,6.28-6,5.92-5.87,1,0-3.24,4.18-7.41,8.84S419,432.2,419,432.64l-.72-.22a31.41,31.41,0,0,0-1.63,3.95,30.91,30.91,0,0,1-1.45,3.56l-1,0c1.37-1.39,1.27-2.13,2.19-3.93-2,2.8-2.78,3-4.19,5.21.94.57,1.76-1.49.3,1.52-.92.51-.62-2-2.16.56-2.26,2.79-.56,3.09-2.18,5.73.5-.51,1-1,1.5-1.51-.61,1-1.55,2.89-2.65,3.48.77-1,2.05-4.14,1.11-4.66-.55,1.22-2.46,3.46-3.06,4.45l-.26-1c-1.31.67-.77,1.87-2.16,2.89-.41,1.52,1.42-.2,1.25.68-.37.14-2.28,2.41-2.33,3.55,1.72.2,1.38-3.21,3.67-4l-1.67,2.2c.46,2.3,2.27-3.76,2.89-2.33.36,2.62-3.62,2.82-2.75,5.56,1-.91,3.12-4.3,3.33-3.56-1.24.9-.83,2.35-1.63,4.13l-1.82,1.68c0,1.11.36.42,1-.1a14.29,14.29,0,0,0-1.82,2.41c-.28.48-.56,1-.85,1.52l-.49.94c-.29.53-.56,1.07-.92,1.65-.19.29-.4.58-.65.91l-.42.51s-.11.1-.08.13l0,.09.07.21c.82.37,1.06.22,1.27.05a1.54,1.54,0,0,1,1-.51c-.29.5.16.76.66.81s1.05-.05,1.36,0c.08,0,.29-.16.44-.43a1.79,1.79,0,0,0,.22-.79,4,4,0,0,1-1.38.35c.44-.44,1-1.21.75-1.19-.85.8-.92.42-.83.08l0-.12s.1-.09.13-.13.14-.14.14-.18-.24-.1-.88,0l1.19-.2a1.33,1.33,0,0,1-.27-.91l-.14,0s.07,0,.08,0,0,0,0-.05v0l.06-.13.67-1.68a19.55,19.55,0,0,1,2.23-4.1c-.13.87-2.81,4.8-.5,2.9a8,8,0,0,1-.74,1.71c-.17.31-.35.63-.55,1l-.31.51-.13.21,0,0c-.18.12-.48.44-.33.63a6.58,6.58,0,0,1,.83-.19,1,1,0,0,0,.44-.09.3.3,0,0,0-.15.09.28.28,0,0,0-.09.25.1.1,0,0,0,.06.08h0c.05,0-.05,0,.17,0-.18.14-.15.29-.2.44a2.5,2.5,0,0,1-.16.43c.08.09.06.21.27.31a6.55,6.55,0,0,0,1.12.28,3.17,3.17,0,0,0,2.24-.36c-1.75.15-.86-.41-.59-.8a26.66,26.66,0,0,1,4.36-.6,50,50,0,0,0,5.49-.65s-.16.2,0,.32l3.79-.89a7.21,7.21,0,0,1,3.67,1c.66-.17,2.32-.29,1.65-.76a3.24,3.24,0,0,0-1,0c1.87-1.12,1.38.16,3.77-.59-1.82.94.67,1.12.5,2,2.82-.54.17-1.49.5-1.9,3.48.25,4,.94,7.44.93.18-.53-2.47-.22-2.8-.79a4.55,4.55,0,0,0,2.32-.23l-2.15-.29a43.64,43.64,0,0,0,11.11-.12l-.32-.25,2.49,0-.87,1c1.34-.28,2.8.52,3.5-.25l-.5-.06,1.67-.33-1.7,1c2.13.38,5.05-1.66,8.54-1.49.75,1.28-6,.49-6.42,2.19,1.15.25,3.11.49,3.8.05-.14-.45-1-.46-1.8-.45,3-.91,7.58.49,9.51-1l-2.28-.55c2.67-.15,4.35,1.62,5.26.68L465,466.53c2.71-.78,6.17-.55,8.71-1.08.1-1-3.65-.08-3.46-.26l1.22-.67c3.93.67,1.11.62,5.86,1.34l.06-.64c1.55,1,5.9-.64,4.21,1l-1.27-.46.08.78q2.74-.15,5.52-.24c-.16.13-.05.24,0,.32a.84.84,0,0,0,.24.21c.18.14.42.3.32.68a2.91,2.91,0,0,0,.66-.65c.9,1.16-1.17,1.25-1.92,2,0,.26.29.39.56.44a1.92,1.92,0,0,0,.63,0,2.08,2.08,0,0,1-.62.15,3.12,3.12,0,0,1-.74-.06,5.91,5.91,0,0,1-1.37-.5,7.37,7.37,0,0,0-3-1l-1.23.64.11-1a4.37,4.37,0,0,0-2.27,1.1c-2.34-1.38-5,.09-8.55-.27,3-.48-1.9-1-1.38-1.2-1.66-.05-5.73,1.62-7.13.45-1-.46,2-.7-.28-.91-1.49.12-2.51.63-1.55,1.09-3.31.29-7.25.12-10.87.26l.85-.66a7.86,7.86,0,0,0-5.63,1.22c-.33-.25-.5-.05-.16-.44-2.94-.95-3.65,1.46-8.39,1.48.32.89,2.44.86,3.92.34l-.34,1.05a80.93,80.93,0,0,0,12-1.23l-1.51.8c2.89,1.3,2-1.38,4.74.14,2-.4-1.45-.5.05-1,1.41.27-.34,1.78,2,1.81-8.82.62-18.85.93-28,1.82-.16.21.33.24.81.27-1.54.81-8.75.78-15.69,1.12-1.75.08-3.5.16-5.16.16-.83,0-1.64,0-2.41-.05s-1.67-.08-2.42-.17-1.44-.19-2.08-.26-1.2-.19-1.69-.28a8.43,8.43,0,0,0-1.27-.14,1.63,1.63,0,0,0-.82.11c-.18-.52,1.74-.11-.36-1-.33,0-1.09-.1-.94.43-.51-.48-1-1-1.62-1.45-.28-.26-.57-.51-.87-.77-.05-.07-.21-.11-.18-.2l.15-.29.28-.58c.74-1.54,1.39-3.09,2-4.72.37-.82.81-1.67,1.24-2.52l.64-1.25.55-1a25.64,25.64,0,0,1,2.57-3.86c-.46-.11,0-1.4-.28-1.58a8.16,8.16,0,0,0,2.36-3.07,10.69,10.69,0,0,1,2.06-3.12l-.78.25c1.12-1.71,2.19-3.45,3.38-5.12-.06-.26-.54.42-.88.79.56-1.25,1.21-1.16,1.66-1l.62-2.9a30.46,30.46,0,0,0,4.28-4.73c1.38-1.72,2.62-3.65,4-5.54a50.31,50.31,0,0,1,9.23-10.65,8.63,8.63,0,0,1,2.52-4.47l-1,.63c1.18-2.24.4.21,1.62-1.46.62-1.37-.63-1.28-1.65.4-1,.62-.75-.12-.3-.87C432.19,409.31,438,405.19,443.87,402.85Z"/><path class="cls-11" d="M449.93,400.14c.21.87-2.33-2.12-1.75-.08,2.68,5.75,10.24,12.32,13.94,18.68a24.22,24.22,0,0,0,1.94,3.85.77.77,0,0,0,.35-.36c1.25,1.52,3.53,3.76,4.49,5.53.51.3,1.31.15.48-.55,2.42,1.86,2.4,4.75,3.92,5.66-.6-1.4,1.46.66.59-.9,2.13,2.31.08,3.71,1.49,5.78.24,0,.49,0,.2-.45,1,2.74,5.91,5.87,4.8,7.23l1.26.35c.35,1.27-.14,1.3,1,2.95,1.06.8.46-.46,1-.27-.18.87,2.33,3.28,2.63,5.11-.77.79-.74-3.08-2.51-3.62-.2.11-.1.32.1.58-5.19-6.37-7-13.1-12-17.66a2.56,2.56,0,0,0-2.69-2c.54,1.15,2.26,4.26,3.47,3.31l.64,2.25c.58.56-.6,1.55-.56,2-.85-1.24-3.09-1.52-2.19.36-2.7-2.84,3.29-1.19.72-3.55l-1.17.35c.88.1-.71-2.5-1.72-3.1l.14.49c-5.66-7.31-14.11-16.28-21.09-23.75.43-3.7-5.64-5-5.5-8.26-1-.61.31,1.84-1.36.44-.83-.71-.35-1.25-.16-1.35l-.82-.6C441,396.17,444,396,449.93,400.14Z"/></g><g id="dhtmlX"><rect class="cls-12" x="471" y="390" width="50" height="27"/><rect class="cls-3" x="473" y="392" width="20" height="20"/></g></svg>