<svg xmlns="http://www.w3.org/2000/svg" viewBox="0 0 61.86 86.38"><defs><style>.cls-1{fill:#fff;}</style></defs><title>icon-recipe</title><g id="Layer_2" data-name="Layer 2"><g id="dhtmlX"><path class="cls-1" d="M45.79,28.34V24a10,10,0,1,0-6-18.59,10,10,0,0,0-17.71,0,9.89,9.89,0,0,0-5-1.36,10,10,0,0,0-1.27,19.91V28.5A30.93,30.93,0,0,0,25.4,85.88a31.42,31.42,0,0,0,5.53.5,30.92,30.92,0,0,0,14.86-58Zm.94,51.5L44,60.59h0c2.18-1.73,5.81-5.76,5.81-10.46,0-6.27-3.27-11.36-7.31-11.36s-7.32,5.09-7.32,11.36c0,4.7,3.63,8.73,5.81,10.46h0L37.69,83.72a29.11,29.11,0,0,1-12.56.22l-3.3-23.35h0c2.18-1.73,5.82-5.76,5.82-10.46a14,14,0,0,0-3.07-9.22.27.27,0,0,0-.46.19v8.26a.61.61,0,0,1-.61.61H23.2a.61.61,0,0,1-.61-.61V39.52a.28.28,0,0,0-.16-.25A5,5,0,0,0,21,38.83V49.36a.61.61,0,0,1-.61.61h-.27a.61.61,0,0,1-.62-.61V38.85a5.26,5.26,0,0,0-1.46.5.29.29,0,0,0-.15.25v9.76a.61.61,0,0,1-.61.61H17a.61.61,0,0,1-.61-.61v-8.1a.27.27,0,0,0-.47-.18A14.12,14.12,0,0,0,13,50.13c0,4.7,3.63,8.73,5.81,10.46h0L16,80.38a29.07,29.07,0,1,1,30.74-.54Z"/></g></g></svg>